<svg width="770" height="549" viewBox="0 0 770 549" fill="none" xmlns="http://www.w3.org/2000/svg">
<g clip-path="url(#clip0_46_165)">
<path d="M108.92 491.783C254.153 568.09 489.605 568.09 634.82 491.783C780.036 415.476 780.053 291.751 634.82 215.444C489.587 139.137 254.136 139.137 108.92 215.444C-36.2952 291.751 -36.3126 415.476 108.92 491.783Z" fill="#F7F7F7"/>
<path d="M457.504 388.472C423.341 408.294 423.341 440.459 457.504 460.298C491.667 480.137 547.029 480.137 581.192 460.298C615.355 440.459 615.338 408.294 581.192 388.472C547.046 368.65 491.65 368.632 457.504 388.472Z" fill="#EBEBEB"/>
<path d="M97.8098 104.131L189.328 75.5047L118.921 124.563L97.8098 104.131Z" fill="#0050FF"/>
<path d="M189.328 75.5047L90.7554 91.8574L69.6438 71.4078L189.328 75.5047Z" fill="#0050FF"/>
<path d="M90.7554 91.8574V116.386L97.8099 104.131L189.328 75.5047L90.7554 91.8574Z" fill="#455A64"/>
<path d="M90.7554 116.386L104.847 110.947L97.8099 104.131L90.7554 116.386Z" fill="#0050FF"/>
<path d="M97.8098 104.131L104.847 110.947L102.594 111.801L97.8098 104.131Z" fill="#455A64"/>
<path d="M75.589 112.69C74.8784 112.69 74.2717 112.133 74.2717 111.4C74.2717 110.912 74.5317 110.459 74.9477 110.232C76.5077 109.361 78.085 108.489 79.645 107.809C80.2689 107.46 81.0663 107.704 81.4129 108.332C81.7596 108.96 81.5169 109.762 80.8929 110.11C80.8583 110.128 80.8236 110.145 80.7889 110.163C79.281 110.895 77.7383 111.679 76.2304 112.534C76.0397 112.638 75.8317 112.69 75.6064 112.69H75.589Z" fill="#E0E0E0"/>
<path d="M59.5907 253.484C59.3307 253.484 59.0707 253.414 58.8453 253.257C56.0201 251.252 53.3508 249.056 50.8548 246.667C50.2482 246.266 50.0749 245.464 50.4735 244.854C50.8722 244.244 51.6695 244.07 52.2761 244.471C52.3975 244.558 52.5015 244.645 52.5881 244.767C54.9974 247.068 57.58 249.195 60.3013 251.113C60.8906 251.531 61.012 252.351 60.596 252.943C60.3533 253.292 59.9547 253.484 59.5387 253.484H59.5907ZM46.0016 240.792C45.6203 240.792 45.239 240.618 44.9963 240.322C42.8123 237.637 40.8191 234.795 39.0511 231.831C38.6698 231.204 38.8778 230.402 39.5018 230.018C40.1257 229.635 40.9231 229.844 41.287 230.472C43.003 233.331 44.9096 236.068 47.0069 238.665C47.4576 239.223 47.3883 240.043 46.8336 240.496C46.6083 240.688 46.3136 240.792 46.0016 240.792ZM36.2432 224.928C35.7232 224.928 35.2552 224.631 35.0472 224.161C33.6259 221.005 32.4126 217.762 31.4073 214.45C31.2513 213.753 31.6846 213.038 32.3779 212.881C33.0019 212.742 33.6432 213.073 33.8859 213.683C34.8392 216.891 36.0005 220.029 37.3525 223.08C37.6645 223.742 37.3698 224.509 36.7285 224.823C36.5725 224.893 36.4165 224.928 36.2605 224.928H36.2432ZM30.6099 207.128C29.9859 207.128 29.466 206.675 29.3446 206.065C28.686 202.682 28.218 199.248 27.9407 195.814C27.8887 195.099 28.426 194.454 29.1366 194.402C29.8473 194.349 30.4886 194.89 30.5406 195.604C30.8006 198.952 31.2513 202.264 31.8926 205.559C32.0312 206.256 31.5979 206.936 30.9046 207.093C30.9046 207.093 30.8873 207.093 30.8699 207.093L30.6099 207.128ZM28.9633 188.509C28.2527 188.509 27.6807 187.934 27.6807 187.219C27.6807 187.219 27.6807 187.201 27.6807 187.184C27.7153 183.732 27.958 180.28 28.374 176.863C28.374 176.149 28.9633 175.556 29.6913 175.573C30.4019 175.573 30.9913 176.166 30.9739 176.898C30.9739 177.003 30.9739 177.09 30.9393 177.177C30.5406 180.507 30.3153 183.854 30.2806 187.219C30.2806 187.934 29.674 188.526 28.9633 188.509ZM31.0779 169.942C30.9739 169.942 30.8873 169.942 30.7833 169.942C30.0899 169.785 29.6393 169.088 29.7953 168.391C30.5579 165.009 31.5286 161.696 32.7072 158.436C32.9326 157.756 33.6779 157.39 34.3539 157.617C34.3885 157.617 34.4059 157.634 34.4405 157.652C35.1338 157.896 35.4805 158.663 35.2378 159.343C35.2378 159.343 35.2378 159.378 35.2205 159.395C34.0765 162.533 33.1406 165.758 32.4126 169.018C32.2392 169.594 31.6846 169.977 31.0779 169.942ZM37.2485 152.334C37.0405 152.334 36.8498 152.3 36.6765 152.195C36.0352 151.899 35.7578 151.131 36.0525 150.486C36.0525 150.486 36.0525 150.469 36.0525 150.452C37.5605 147.348 39.2591 144.332 41.1484 141.438C41.547 140.881 42.2924 140.724 42.8817 141.072C43.4537 141.456 43.627 142.223 43.263 142.816C41.443 145.605 39.7791 148.516 38.3231 151.532C38.1324 151.986 37.7165 152.299 37.2311 152.334H37.2485ZM47.2149 136.644C46.9203 136.644 46.6429 136.557 46.4176 136.365C45.8456 135.912 45.759 135.093 46.1923 134.535C48.3589 131.85 50.6815 129.27 53.1255 126.847C53.6281 126.341 54.4601 126.341 54.9628 126.847C55.4654 127.352 55.4654 128.189 54.9628 128.694C52.6055 131.065 50.3695 133.558 48.2722 136.173C47.9949 136.47 47.5962 136.627 47.1976 136.592V136.662L47.2149 136.644ZM60.2493 123.255C59.868 123.255 59.504 123.081 59.2613 122.785C58.8107 122.227 58.88 121.407 59.4173 120.937C62.0519 118.722 64.8079 116.665 67.6505 114.73C68.2225 114.364 68.9851 114.521 69.3838 115.079C69.7824 115.689 69.6265 116.491 69.0371 116.909C66.2639 118.792 63.5772 120.797 61.012 122.959C60.7866 123.133 60.5266 123.238 60.2493 123.255Z" fill="#E0E0E0"/>
<path d="M71.5157 260.3C71.325 260.3 71.1517 260.265 70.9784 260.178C69.3664 259.446 67.7718 258.662 66.2465 257.825C65.6225 257.494 65.3798 256.709 65.7091 256.081C66.0385 255.454 66.8184 255.227 67.4424 255.541C68.9331 256.343 70.4757 257.11 72.0357 257.825C72.6943 258.121 72.9716 258.906 72.6597 259.568C72.4517 260.021 72.001 260.318 71.4983 260.318L71.5157 260.3Z" fill="#E0E0E0"/>
<path d="M664.39 197.034L737.709 149.824L770 160.249L664.39 197.034Z" fill="#0050FF"/>
<path d="M664.39 197.034L727.759 143.897L713.668 127.544L664.39 197.034Z" fill="#0050FF"/>
<path d="M727.759 143.897V156.222L664.39 197.034L727.759 143.897Z" fill="#455A64"/>
<path d="M742.059 138.754C741.747 138.754 741.435 138.632 741.21 138.422C740.673 137.934 740.621 137.115 741.089 136.574C743.342 134.047 745.352 131.292 747.068 128.363C747.432 127.736 748.23 127.526 748.854 127.893C749.478 128.259 749.686 129.061 749.322 129.688C747.502 132.756 745.404 135.65 743.047 138.318C742.804 138.597 742.44 138.754 742.059 138.754ZM751.974 122.506C751.818 122.523 751.662 122.523 751.506 122.506C750.83 122.244 750.5 121.494 750.76 120.815C750.76 120.797 750.76 120.78 750.778 120.762C752.008 117.589 752.927 114.294 753.516 110.947C753.638 110.232 754.331 109.762 755.042 109.884C755.752 110.006 756.22 110.703 756.099 111.418C755.458 114.939 754.487 118.374 753.204 121.704C752.996 122.192 752.528 122.523 751.991 122.506H751.974ZM755.683 103.799C754.972 103.799 754.4 103.207 754.418 102.492C754.418 102.492 754.418 102.492 754.418 102.474V101.115C754.418 98.1509 754.175 95.2046 753.724 92.2758C753.62 91.561 754.106 90.8985 754.816 90.7765C755.527 90.6893 756.186 91.16 756.307 91.8748C756.775 94.9257 757.018 98.0288 757.018 101.115V102.527C756.983 103.241 756.394 103.817 755.683 103.799ZM753.066 84.9014C752.494 84.9014 751.991 84.5178 751.835 83.96C750.847 80.6825 749.599 77.4921 748.108 74.4238C747.796 73.7788 748.056 73.0117 748.68 72.6979C748.68 72.6979 748.698 72.6979 748.715 72.6979C749.356 72.3841 750.136 72.663 750.448 73.3081C751.991 76.4984 753.291 79.8282 754.314 83.2278C754.522 83.9077 754.14 84.6224 753.464 84.8491C753.464 84.8491 753.464 84.8491 753.447 84.8491C753.326 84.9014 753.204 84.9188 753.066 84.9188V84.9014ZM745.023 67.5899C744.572 67.5899 744.156 67.3632 743.931 66.9797C742.077 64.1031 740.031 61.3661 737.813 58.7685C737.345 58.228 737.397 57.3912 737.951 56.9205C738.489 56.4498 739.303 56.5021 739.754 57.0426C742.059 59.7273 744.174 62.569 746.098 65.5501C746.427 66.1429 746.271 66.8925 745.716 67.2935C745.508 67.4504 745.266 67.5376 745.006 67.555L745.023 67.5899ZM732.89 52.9282C732.561 52.9282 732.249 52.7888 732.006 52.5621C729.51 50.2086 726.893 47.9946 724.154 45.9374C723.582 45.5016 723.461 44.6822 723.894 44.1069C724.328 43.5316 725.142 43.4095 725.714 43.8454C728.539 45.9548 731.226 48.2386 733.791 50.6619C734.311 51.15 734.346 51.9868 733.861 52.5098C733.618 52.7888 733.254 52.9282 732.89 52.9282ZM717.689 41.3175C717.446 41.3175 717.204 41.2478 716.996 41.1083C715.817 40.3761 714.586 39.6439 713.338 38.9291C711.605 37.9528 709.872 36.9765 708.035 36.0526C707.376 35.7911 707.047 35.024 707.307 34.3441C707.567 33.6816 708.329 33.3504 709.005 33.6119C709.074 33.6467 709.144 33.6816 709.213 33.7165C711.033 34.6579 712.853 35.6342 714.621 36.6453C715.904 37.3601 717.152 38.1097 718.365 38.8768C718.954 39.2429 719.145 40.01 718.798 40.6202C718.573 41.0211 718.157 41.2826 717.689 41.3001V41.3175ZM562.299 40.4284C561.831 40.4284 561.398 40.1669 561.172 39.7659C560.826 39.1557 561.034 38.3712 561.64 38.0226C564.656 36.2792 567.759 34.5358 570.896 33.0714C571.537 32.7576 572.317 33.0191 572.629 33.6642C572.924 34.3092 572.664 35.0937 572.023 35.4075C568.937 36.9242 565.887 38.5456 562.923 40.2715C562.732 40.3587 562.507 40.411 562.299 40.3935V40.4284ZM700.789 32.4613C700.616 32.4613 700.425 32.4264 700.269 32.3392C697.149 30.962 693.925 29.6719 690.702 28.5213C690.026 28.2772 689.662 27.5276 689.922 26.8302C690.182 26.1329 690.91 25.7842 691.586 26.0457C694.861 27.2312 698.137 28.5387 701.327 29.9508C701.985 30.2298 702.297 30.9968 702.02 31.6593C701.812 32.1475 701.327 32.4613 700.789 32.4613ZM579.372 31.9208C578.852 31.9208 578.367 31.607 578.176 31.1189C577.881 30.4564 578.176 29.6893 578.835 29.393C578.835 29.393 578.852 29.393 578.869 29.393C582.076 28.0331 585.369 26.7779 588.662 25.6447C589.321 25.3658 590.084 25.6796 590.361 26.3595C590.361 26.3944 590.378 26.4293 590.396 26.4467C590.656 27.144 590.309 27.9111 589.616 28.1726C589.616 28.1726 589.598 28.1726 589.581 28.1726C586.34 29.2884 583.081 30.5261 579.944 31.8511C579.753 31.9034 579.563 31.9208 579.372 31.886V31.9208ZM682.902 25.8888C682.78 25.8888 682.659 25.8888 682.538 25.8888C679.262 24.93 675.899 24.1455 672.554 23.3261C671.843 23.1692 671.41 22.4718 671.549 21.7571C671.705 21.0423 672.398 20.6064 673.109 20.7633C676.575 21.513 679.938 22.4021 683.266 23.3784C683.959 23.5876 684.358 24.3024 684.15 24.9997C683.994 25.5576 683.474 25.9411 682.902 25.9411V25.8888ZM597.364 25.6273C596.774 25.6273 596.272 25.2263 596.116 24.6685C595.925 23.9886 596.306 23.2738 596.982 23.0646C600.327 22.1232 603.759 21.3212 607.174 20.5541C607.85 20.3275 608.595 20.711 608.803 21.4084C609.029 22.0883 608.647 22.8379 607.954 23.0471C607.867 23.082 607.781 23.0994 607.694 23.0994C604.331 23.8142 600.969 24.651 597.675 25.575L597.329 25.6273H597.364ZM664.321 21.6873H664.061C660.681 21.1469 657.232 20.711 653.834 20.3972C653.124 20.3972 652.534 19.8045 652.552 19.0723C652.552 18.3575 653.141 17.7648 653.869 17.7822C653.938 17.7822 654.008 17.7822 654.06 17.7822C657.526 18.096 660.993 18.5319 664.459 19.0897C665.17 19.2118 665.638 19.8742 665.534 20.589C665.413 21.1643 664.91 21.6002 664.321 21.6176V21.6699V21.6873ZM615.979 21.5653C615.338 21.5653 614.8 21.0946 614.696 20.467C614.592 19.7522 615.078 19.0897 615.788 18.9677C619.255 18.4447 622.722 18.0088 626.188 17.7125C626.899 17.6427 627.54 18.1832 627.61 18.898C627.679 19.6127 627.142 20.2578 626.431 20.3275C622.964 20.6239 619.584 21.0248 616.204 21.5653H615.996H615.979ZM645.358 19.8219C641.892 19.6999 638.425 19.6825 635.045 19.8219C634.352 19.8568 633.745 19.3164 633.711 18.619C633.711 18.6016 633.711 18.5842 633.711 18.5667C633.676 17.8519 634.231 17.2592 634.941 17.2243C634.941 17.2243 634.959 17.2243 634.976 17.2243C638.443 17.1023 641.909 17.1197 645.376 17.2243C646.086 17.2418 646.658 17.8519 646.641 18.5667C646.589 19.2466 646.034 19.7696 645.358 19.7871V19.8219Z" fill="#E0E0E0"/>
<path d="M638.824 222.522V219.732H638.148C637.126 217.85 635.566 216.298 633.659 215.304C625.807 211.295 616.517 211.295 608.665 215.304C606.758 216.298 605.198 217.85 604.176 219.732H603.5V222.435C603.5 225.102 605.233 227.787 608.699 229.826C616.551 233.819 625.842 233.819 633.694 229.826C637.126 227.857 638.841 225.172 638.824 222.522Z" fill="#37474F"/>
<path d="M621.162 230.001C630.916 230.001 638.824 225.404 638.824 219.732C638.824 214.061 630.916 209.464 621.162 209.464C611.407 209.464 603.5 214.061 603.5 219.732C603.5 225.404 611.407 230.001 621.162 230.001Z" fill="#455A64"/>
<path d="M616.62 134.238V218.53C616.69 219.349 617.192 220.064 617.938 220.395C619.966 221.424 622.34 221.424 624.368 220.395C625.114 220.064 625.633 219.349 625.703 218.53V134.238H616.62Z" fill="#37474F"/>
<path d="M641.528 71.1463C637.108 68.5836 633.087 68.3744 630.071 70.0654L573.929 102.701L602.096 159.517L658.428 126.742V101.882C658.428 90.3232 650.853 76.5681 641.528 71.1463Z" fill="#455A64"/>
<path d="M602.095 134.639V159.517L568.313 139.887V115.027C568.313 103.468 575.871 98.4996 585.196 103.921C591.176 107.408 596.428 114.277 599.426 121.808C601.107 125.888 602.009 130.229 602.095 134.639Z" fill="#37474F"/>
<path d="M602.095 134.639V159.517L568.313 139.887L599.426 121.808C601.107 125.888 602.009 130.229 602.095 134.639Z" fill="#263238"/>
<path d="M596.462 143.164C593.36 134.134 583.272 122.418 573.929 117.014C564.587 111.61 559.56 114.521 562.663 123.552L568.296 139.904L602.095 159.534C602.095 159.534 599.582 152.195 596.462 143.164Z" fill="#455A64"/>
<path d="M619.706 135.581L617.816 134.482C616.984 134.099 616.031 134.186 615.286 134.726C613.171 136.121 611.837 138.44 611.698 140.985C611.594 141.892 612.01 142.798 612.755 143.321L614.489 144.332L614.818 143.792C615.182 143.722 615.528 143.583 615.84 143.391C617.955 141.996 619.29 139.695 619.428 137.15C619.428 136.836 619.394 136.522 619.307 136.226L619.706 135.581Z" fill="#263238"/>
<path d="M617.088 135.79C614.974 137.185 613.639 139.486 613.5 142.031C613.5 144.332 615.112 145.256 617.088 144.106C619.203 142.728 620.538 140.41 620.676 137.865C620.728 135.563 618.995 134.639 617.088 135.79Z" fill="#37474F"/>
<path d="M617.089 140.933C616.517 140.933 616.049 140.462 616.049 139.887V103.921C616.049 103.346 616.517 102.875 617.089 102.875C617.661 102.875 618.129 103.346 618.129 103.921V139.887C618.129 140.462 617.661 140.933 617.089 140.933Z" fill="#263238"/>
<path d="M618.024 104.863V114.242L628.026 103.921L618.024 104.863Z" fill="#37474F"/>
<path d="M92.2113 415.982C91.3447 416.453 75.433 420.985 69.5398 413.158C63.6466 405.33 73.4397 393.127 67.9105 388.629C62.3813 384.131 46.8856 388.629 43.159 379.18C39.4324 369.731 50.4735 365.651 44.2683 356.115C40.3511 350.101 29.3967 346.788 29.8993 341.192C30.6273 333.016 45.603 330.732 58.672 339.571C71.7411 348.41 77.8423 341.157 81.9849 340.564C86.1275 339.972 95.0713 341.279 94.794 355.923C94.5166 370.568 92.2113 415.982 92.2113 415.982Z" fill="#0050FF"/>
<path d="M93.2688 395.219C92.8354 395.219 92.4714 394.905 92.4021 394.486C87.8435 366.593 55.7255 344.051 39.0165 339.205C38.5659 339.083 38.2886 338.612 38.4099 338.159C38.4099 338.159 38.4099 338.141 38.4099 338.124C38.5486 337.653 39.0165 337.392 39.4845 337.531C56.5575 342.5 89.4208 365.669 94.1007 394.208C94.1701 394.678 93.8581 395.114 93.3901 395.201H93.2514L93.2688 395.219Z" fill="white"/>
<path d="M55.3789 371.875C54.8935 371.875 54.5122 371.492 54.5122 371.003C54.5122 370.69 54.6682 370.411 54.9282 370.254C55.4482 369.94 67.8239 362.67 79.9917 366.07C80.477 366.192 80.7543 366.68 80.633 367.168C80.5117 367.656 80.0263 367.935 79.541 367.813C68.0666 364.605 55.9335 371.736 55.8122 371.805C55.6735 371.875 55.5349 371.893 55.3789 371.875Z" fill="white"/>
<path d="M545.33 268.686C552.159 269.627 563.79 265.653 564.622 254.216C565.454 242.78 570.151 239.677 578.765 237.811C587.38 235.946 589.91 232.93 590.898 227.49C591.886 222.051 585.334 215.548 587.172 207.355C589.009 199.161 595.145 199.178 601.177 189.921C605.042 183.959 597.121 174.859 583.93 178.764C570.74 182.669 571.797 191.229 558.607 192.327C545.417 193.425 537.149 201.48 536.889 211.504C536.629 221.528 545.33 268.686 545.33 268.686Z" fill="#0050FF"/>
<path opacity="0.2" d="M545.33 268.686C552.159 269.627 563.79 265.653 564.622 254.216C565.454 242.78 570.151 239.677 578.765 237.811C587.38 235.946 589.91 232.93 590.898 227.49C591.886 222.051 585.334 215.548 587.172 207.355C589.009 199.161 595.145 199.178 601.177 189.921C605.042 183.959 597.121 174.859 583.93 178.764C570.74 182.669 571.797 191.229 558.607 192.327C545.417 193.425 537.149 201.48 536.889 211.504C536.629 221.528 545.33 268.686 545.33 268.686Z" fill="black"/>
<path d="M542.834 246.755H542.73C542.262 246.65 541.95 246.197 542.054 245.726C548.433 214.014 583.22 184.987 591.696 182.024C592.181 181.867 592.684 182.128 592.84 182.616C592.996 183.105 592.736 183.61 592.268 183.767C583.982 186.661 549.992 215.147 543.735 246.162C543.597 246.545 543.233 246.789 542.834 246.755Z" fill="white"/>
<path d="M84.9316 235.51C85.105 232.32 86.7863 229.408 89.4382 227.665L319.811 93.8797C322.636 92.4501 325.981 92.4501 328.807 93.8797L333.885 96.8434C336.554 98.5867 338.236 101.498 338.392 104.688V282.301C338.218 285.492 336.537 288.403 333.885 290.147L103.513 423.914C100.687 425.361 97.3247 425.361 94.4994 423.914L89.4382 420.968C86.7863 419.225 85.105 416.313 84.9316 413.123V235.51Z" fill="#0050FF"/>
<path opacity="0.3" d="M84.9316 235.51C85.105 232.32 86.7863 229.408 89.4382 227.665L319.811 93.8797C322.636 92.4501 325.981 92.4501 328.807 93.8797L333.885 96.8434C336.554 98.5867 338.236 101.498 338.392 104.688V282.301C338.218 285.492 336.537 288.403 333.885 290.147L103.513 423.914C100.687 425.361 97.3247 425.361 94.4994 423.914L89.4382 420.968C86.7863 419.225 85.105 416.313 84.9316 413.123V235.51Z" fill="black"/>
<path d="M106.043 242.553L86.2489 231.047C85.4343 232.389 84.9836 233.941 84.9316 235.51V413.123C85.105 416.313 86.7863 419.225 89.4382 420.968L94.4994 423.914C97.3247 425.361 100.687 425.361 103.513 423.914L106.043 422.45V242.553Z" fill="#0050FF"/>
<path opacity="0.5" d="M106.043 242.553L86.2489 231.047C85.4343 232.389 84.9836 233.941 84.9316 235.51V413.123C85.105 416.313 86.7863 419.225 89.4382 420.968L94.4994 423.914C97.3247 425.361 100.687 425.361 103.513 423.914L106.043 422.45V242.553Z" fill="black"/>
<path d="M338.392 104.689V282.302C338.34 283.923 337.854 285.509 336.988 286.887C336.329 288.055 335.428 289.048 334.353 289.85L334.18 289.955L333.885 290.147L103.513 423.914C102.611 424.559 101.467 424.681 100.445 424.263C99.4739 423.635 98.9193 422.52 99.0059 421.369V243.686C98.8673 241.507 100.514 239.642 102.681 239.502C103.149 239.467 103.616 239.537 104.067 239.676L200.941 262.846L213.629 265.879C216.679 266.454 219.799 265.286 221.723 262.828L236.422 242.239L335.358 103.695C337.022 101.359 338.392 101.795 338.392 104.689Z" fill="#0050FF"/>
<path opacity="0.2" d="M338.392 104.689V282.302C338.34 283.923 337.854 285.509 336.988 286.887C336.329 288.055 335.428 289.048 334.353 289.85L334.18 289.955L333.885 290.147L103.513 423.914C102.611 424.559 101.467 424.681 100.445 424.263C99.4739 423.635 98.9193 422.52 99.0059 421.369V243.686C98.8673 241.507 100.514 239.642 102.681 239.502C103.149 239.467 103.616 239.537 104.067 239.676L200.941 262.846L213.629 265.879C216.679 266.454 219.799 265.286 221.723 262.828L236.422 242.239L335.358 103.695C337.022 101.359 338.392 101.795 338.392 104.689Z" fill="black"/>
<path d="M333.885 290.147L334.18 289.955L334.353 289.85C335.428 289.048 336.329 288.055 336.988 286.887C337.837 285.527 338.322 283.975 338.392 282.371L236.422 242.274L304.714 307.127L333.885 290.147Z" fill="#0050FF"/>
<path opacity="0.6" d="M333.885 290.147L334.18 289.955L334.353 289.85C335.428 289.048 336.329 288.055 336.988 286.887C337.837 285.527 338.322 283.975 338.392 282.371L236.422 242.274L304.714 307.127L333.885 290.147Z" fill="black"/>
<path d="M99.0059 421.369C98.8673 422.554 99.4219 423.705 100.41 424.35C101.433 424.769 102.577 424.646 103.478 424.001L182.828 377.785L200.941 262.724L99.0059 418.353V421.369Z" fill="#0050FF"/>
<path opacity="0.6" d="M99.0059 421.369C98.8673 422.554 99.4219 423.705 100.41 424.35C101.433 424.769 102.577 424.646 103.478 424.001L182.828 377.785L200.941 262.724L99.0059 418.353V421.369Z" fill="black"/>
<path d="M336.988 286.887C336.329 288.055 335.428 289.048 334.353 289.85L334.18 289.955L103.513 423.914C102.611 424.559 101.467 424.681 100.445 424.263L210.769 247.121C215.345 239.781 224.601 236.957 232.47 240.461L336.988 286.887Z" fill="#0050FF"/>
<path opacity="0.2" d="M336.988 286.887C336.329 288.055 335.428 289.048 334.353 289.85L334.18 289.955L103.513 423.914C102.611 424.559 101.467 424.681 100.445 424.263L210.769 247.121C215.345 239.781 224.601 236.957 232.47 240.461L336.988 286.887Z" fill="black"/>
<path d="M99.0061 238.456L204.963 285.527C212.849 289.031 222.088 286.172 226.663 278.815L337.924 99.7199L99.0061 238.456Z" fill="#0050FF"/>
<path opacity="0.6" d="M99.0061 238.456L204.963 285.527C212.849 289.031 222.088 286.172 226.663 278.815L337.924 99.7199L99.0061 238.456Z" fill="black"/>
<path d="M99.0061 238.456L205.708 278.553C213.3 281.412 221.845 278.588 226.282 271.754L337.924 99.7199L99.0061 238.456Z" fill="#0050FF"/>
<path opacity="0.2" d="M99.0061 238.456L205.708 278.553C213.3 281.412 221.845 278.588 226.282 271.754L337.924 99.7199L99.0061 238.456Z" fill="black"/>
<path d="M124.278 257.389C124.434 254.199 126.115 251.287 128.784 249.544L359.157 115.759C361.982 114.312 365.345 114.312 368.17 115.759L373.248 118.705C375.9 120.448 377.564 123.36 377.738 126.55V304.163C377.564 307.354 375.9 310.265 373.248 312.008L142.859 445.776C140.033 447.205 136.688 447.205 133.863 445.776L128.784 442.83C126.132 441.086 124.451 438.175 124.278 434.985V257.389Z" fill="#455A64"/>
<path d="M124.278 257.389C124.434 254.199 126.115 251.287 128.784 249.544L359.157 115.759C361.982 114.312 365.345 114.312 368.17 115.759L373.248 118.705C375.9 120.448 377.564 123.36 377.738 126.55V304.163C377.564 307.354 375.9 310.265 373.248 312.008L142.859 445.776C140.033 447.205 136.688 447.205 133.863 445.776L128.784 442.83C126.132 441.086 124.451 438.175 124.278 434.985V257.389Z" fill="#455A64"/>
<path d="M145.406 264.467L125.595 252.978C124.78 254.321 124.33 255.872 124.278 257.441V435.002C124.451 438.192 126.132 441.104 128.784 442.847L133.863 445.793C136.688 447.223 140.033 447.223 142.859 445.793L145.406 444.312V264.467Z" fill="#263238"/>
<path d="M377.755 126.55V304.163C377.703 305.785 377.218 307.371 376.351 308.748C375.692 309.916 374.791 310.91 373.716 311.712L373.543 311.817L373.248 312.008L142.876 445.776C141.974 446.421 140.831 446.543 139.808 446.125C138.82 445.48 138.265 444.329 138.404 443.143V265.548C138.265 263.369 139.912 261.503 142.078 261.364C142.546 261.329 143.014 261.399 143.465 261.538L240.339 284.707L253.027 287.741C256.077 288.316 259.197 287.148 261.121 284.69L275.802 264.101L374.739 125.556C376.334 123.255 377.755 123.656 377.755 126.55Z" fill="#37474F"/>
<path d="M373.248 312.008L373.543 311.817L373.716 311.712C374.791 310.91 375.692 309.916 376.351 308.748C377.2 307.388 377.668 305.837 377.737 304.25L275.785 264.153L344.059 328.971L373.248 312.008Z" fill="#263238"/>
<path d="M138.369 443.161C138.23 444.346 138.785 445.497 139.773 446.142C140.796 446.56 141.94 446.438 142.841 445.793L222.157 399.734L240.27 284.672L138.334 440.18L138.369 443.161Z" fill="#263238"/>
<path d="M376.334 308.748C375.675 309.916 374.774 310.91 373.699 311.712L373.526 311.817L142.876 445.776C141.974 446.421 140.831 446.543 139.808 446.125L250.115 269C254.691 261.66 263.929 258.801 271.816 262.305L376.334 308.748Z" fill="#37474F"/>
<path d="M138.369 260.335L244.326 307.406C252.212 310.893 261.451 308.033 266.009 300.694L377.27 121.512L138.369 260.335Z" fill="#263238"/>
<path d="M138.369 260.335L245.054 300.432C252.645 303.292 261.208 300.467 265.645 293.633L377.27 121.512L138.369 260.335Z" fill="#37474F"/>
<path d="M293.257 398.374V220.761C293.413 217.396 294.47 214.119 296.29 211.295L406.164 57.4087C410.271 51.6556 417.413 48.9708 424.259 50.6096L527.581 75.3129C530.909 76.2021 534.116 77.4921 537.149 79.1483L542.227 82.0946C544.879 83.838 546.543 86.7494 546.717 89.9397V267.553C546.543 270.726 544.879 273.637 542.227 275.398L311.838 409.165C309.012 410.612 305.667 410.612 302.842 409.165L297.763 406.219C295.111 404.476 293.43 401.564 293.257 398.374Z" fill="#0050FF"/>
<path opacity="0.3" d="M293.257 398.374V220.761C293.413 217.396 294.47 214.119 296.29 211.295L406.164 57.4087C410.271 51.6556 417.413 48.9708 424.259 50.6096L527.581 75.3129C530.909 76.2021 534.116 77.4921 537.149 79.1483L542.227 82.0946C544.879 83.838 546.543 86.7494 546.717 89.9397V267.553C546.543 270.726 544.879 273.637 542.227 275.398L311.838 409.165C309.012 410.612 305.667 410.612 302.842 409.165L297.763 406.219C295.111 404.476 293.43 401.564 293.257 398.374Z" fill="white"/>
<path d="M314.368 134.918V361.554C314.368 364.431 316.396 365.616 318.875 364.169L535.173 238.648C537.842 236.905 539.506 233.993 539.679 230.803V4.16662C539.679 1.27265 537.669 0.104598 535.173 1.55158L318.875 127.073C316.223 128.817 314.541 131.728 314.368 134.918Z" fill="#FAFAFA"/>
<path d="M316.864 365.686C316.31 365.686 315.755 365.547 315.27 365.268C314.056 364.466 313.398 363.036 313.536 361.589V134.953C313.71 131.449 315.547 128.241 318.476 126.341L534.774 0.819384C536.317 -0.435832 538.57 -0.209195 539.818 1.34239C540.46 2.14433 540.737 3.19035 540.581 4.20149V230.838C540.425 234.342 538.57 237.55 535.641 239.432L319.343 364.954C318.598 365.407 317.748 365.669 316.864 365.686ZM537.184 1.7085C536.629 1.74336 536.074 1.9177 535.606 2.21407L319.308 127.823C316.916 129.409 315.408 132.042 315.235 134.918V361.554C314.975 362.583 315.599 363.646 316.622 363.908C317.263 364.082 317.956 363.891 318.442 363.42L534.74 237.898C537.132 236.312 538.64 233.679 538.813 230.803V4.16663C538.917 3.32982 538.57 2.51044 537.929 1.98743C537.704 1.83053 537.461 1.72593 537.184 1.7085Z" fill="#E0E0E0"/>
<path d="M309.706 225.085L294.106 216.019C293.603 217.553 293.326 219.14 293.274 220.761V398.374C293.447 401.564 295.129 404.476 297.781 406.219L302.842 409.165C305.667 410.612 309.012 410.612 311.838 409.165L314.004 407.928L309.706 225.085Z" fill="#0050FF"/>
<g opacity="0.1">
<path d="M309.706 225.085L294.106 216.019C293.603 217.553 293.326 219.14 293.274 220.761V398.374C293.447 401.564 295.129 404.476 297.781 406.219L302.842 409.165C305.667 410.612 309.012 410.612 311.838 409.165L314.004 407.928L309.706 225.085Z" fill="black"/>
</g>
<path d="M546.734 89.9397V267.553C546.682 269.174 546.197 270.76 545.33 272.138C544.672 273.306 543.77 274.299 542.696 275.101L542.522 275.206L542.228 275.398L311.855 409.165C310.954 409.81 309.81 409.932 308.787 409.514C307.799 408.869 307.244 407.718 307.383 406.533V228.937C307.244 226.758 308.891 224.893 311.058 224.753C311.526 224.718 311.994 224.788 312.444 224.928L409.266 248.097L421.954 251.13C425.005 251.706 428.142 250.538 430.066 248.079L444.764 227.49L543.701 88.946C545.365 86.6447 546.734 87.0457 546.734 89.9397Z" fill="#0050FF"/>
<path opacity="0.3" d="M546.734 89.9397V267.553C546.682 269.174 546.197 270.76 545.33 272.138C544.672 273.306 543.77 274.299 542.696 275.101L542.522 275.206L542.228 275.398L311.855 409.165C310.954 409.81 309.81 409.932 308.787 409.514C307.799 408.869 307.244 407.718 307.383 406.533V228.937C307.244 226.758 308.891 224.893 311.058 224.753C311.526 224.718 311.994 224.788 312.444 224.928L409.266 248.097L421.954 251.13C425.005 251.706 428.142 250.538 430.066 248.079L444.764 227.49L543.701 88.946C545.365 86.6447 546.734 87.0457 546.734 89.9397Z" fill="white"/>
<path d="M542.227 275.398L542.522 275.206L542.695 275.101C543.77 274.3 544.671 273.306 545.33 272.138C546.179 270.778 546.647 269.226 546.717 267.622L444.764 227.525L513.039 292.361L542.227 275.398Z" fill="#0050FF"/>
<path d="M307.348 406.55C307.21 407.736 307.764 408.887 308.752 409.532C309.775 409.95 310.919 409.828 311.82 409.183L391.136 363.123L409.249 248.062L307.314 403.569L307.348 406.55Z" fill="#0050FF"/>
<path d="M545.33 272.138C544.672 273.306 543.77 274.3 542.696 275.101L542.522 275.206L311.855 409.165C310.954 409.811 309.81 409.933 308.787 409.514L419.094 232.389C423.67 225.05 432.909 222.208 440.778 225.695L545.33 272.138Z" fill="#0050FF"/>
<path opacity="0.3" d="M545.33 272.138C544.672 273.306 543.77 274.3 542.696 275.101L542.522 275.206L311.855 409.165C310.954 409.811 309.81 409.933 308.787 409.514L419.094 232.389C423.67 225.05 432.909 222.208 440.778 225.695L545.33 272.138Z" fill="white"/>
<path d="M409.613 187.114C405.505 187.759 401.345 186.312 398.502 183.279C395.868 180.333 394.551 175.782 394.551 169.663C394.551 162.76 396.024 155.943 398.866 149.65C401.778 143.182 405.8 137.272 410.757 132.216C416.078 126.672 422.145 121.895 428.783 118.025C435.283 114.259 440.847 112.167 445.44 111.766C450.068 111.348 453.552 112.551 455.944 115.34C458.336 118.13 459.514 122.401 459.514 128.119C459.618 133.785 458.284 139.399 455.632 144.402C453.292 148.935 449.739 152.718 445.371 155.315C443.863 156.396 442.008 156.885 440.171 156.675C438.836 156.414 437.779 155.385 437.467 154.043C436.028 156.78 434.191 159.308 432.024 161.522C429.84 163.788 427.345 165.758 424.606 167.327C419.891 170.012 416.13 170.814 413.357 169.89C410.584 168.966 409.266 166.142 409.266 161.435C409.301 155.525 411.121 149.754 414.466 144.89C418.106 139.503 422.959 135.04 428.61 131.85C430.967 130.438 433.532 129.392 436.219 128.782C438.212 128.241 440.31 128.241 442.303 128.782V147.139C442.303 148.621 442.563 149.528 443.066 149.876C443.568 150.225 444.4 150.051 445.579 149.371C447.78 147.941 449.392 145.762 450.172 143.251C451.351 139.852 451.905 136.261 451.819 132.669C451.819 128.084 450.831 124.754 448.837 122.68C446.688 120.553 443.638 119.629 440.674 120.169C436.444 120.814 432.388 122.331 428.766 124.632C421.105 128.904 414.501 134.866 409.44 142.066C404.76 148.83 402.281 156.867 402.333 165.096C402.333 170.099 403.356 173.76 405.401 176.061C407.55 178.398 410.722 179.496 413.859 178.99C418.175 178.38 422.301 176.846 425.993 174.51C428.54 173.028 430.95 171.319 433.186 169.419C435.266 167.693 437.172 165.741 438.854 163.596C439.027 163.37 439.235 163.178 439.46 163.004C439.616 162.917 439.772 163.004 439.911 163.213L441.818 166.7C441.887 166.839 441.939 166.979 441.974 167.135C441.922 167.519 441.731 167.885 441.436 168.147C439.339 170.674 437.016 173.011 434.503 175.12C431.851 177.352 429.008 179.356 426.027 181.117C421.053 184.273 415.454 186.33 409.613 187.114ZM432.146 154.339C433.792 152.387 434.763 149.929 434.884 147.366V136.731C432.406 136.941 430.031 137.76 427.951 139.137C424.641 141.003 421.833 143.635 419.735 146.825C417.777 149.737 416.719 153.189 416.702 156.71C416.702 159.656 417.43 161.417 418.903 161.94C420.377 162.463 422.647 161.94 425.75 160.075C428.263 158.61 430.464 156.658 432.215 154.339H432.146Z" fill="#E0E0E0"/>
<path d="M188.86 204.583L171.96 194.733H171.839C166.067 191.455 158.111 191.943 149.306 197.051C131.609 207.32 117.275 232.302 117.275 252.839C117.275 263.107 120.845 270.272 126.617 273.759L142.338 282.807L145.181 278.048C148.405 277.316 151.508 276.113 154.367 274.456C172.047 264.171 186.399 239.188 186.399 218.669C186.399 215.897 186.052 213.125 185.393 210.44L188.86 204.583Z" fill="#F28F8F"/>
<path d="M188.86 204.583L171.96 194.733H171.839C166.067 191.455 158.111 191.943 149.306 197.051C131.609 207.32 117.275 232.302 117.275 252.839C117.275 263.107 120.845 270.272 126.617 273.759L142.338 282.807L145.181 278.048C148.405 277.316 151.508 276.113 154.367 274.456C172.047 264.171 186.399 239.188 186.399 218.669C186.399 215.897 186.052 213.125 185.393 210.44L188.86 204.583Z" fill="#0050FF"/>
<path opacity="0.4" d="M188.86 204.583L171.96 194.733H171.839C166.067 191.455 158.111 191.943 149.306 197.051C131.609 207.32 117.275 232.302 117.275 252.839C117.275 263.107 120.845 270.272 126.617 273.759L142.338 282.807L145.181 278.048C148.405 277.316 151.508 276.113 154.367 274.456C172.047 264.171 186.399 239.188 186.399 218.669C186.399 215.897 186.052 213.125 185.393 210.44L188.86 204.583Z" fill="black"/>
<path d="M165.547 206.413C147.85 216.699 133.516 241.681 133.516 262.201C133.516 282.72 147.85 291.071 165.547 280.802C183.244 270.534 197.579 245.552 197.579 225.015C197.579 204.478 183.244 196.145 165.547 206.413Z" fill="#0050FF"/>
<path d="M153.033 267.117C152.704 267.117 152.53 266.925 152.53 266.629C152.565 266.297 152.652 265.984 152.808 265.687L154.42 262.044C154.524 261.695 154.732 261.364 155.026 261.137C155.269 261.033 155.529 260.963 155.789 260.963C157.228 260.876 158.649 260.597 160.018 260.109C161.838 259.498 163.571 258.679 165.218 257.703C167.783 256.308 170.019 254.39 171.805 252.089C173.139 250.346 173.884 248.219 173.936 246.005C173.936 242.152 171.597 241.594 166.917 244.261L162.358 247.033C161.613 247.452 161.093 247.609 160.781 247.469C160.469 247.33 160.313 246.911 160.313 246.214V244.767C160.295 244.157 160.451 243.547 160.781 243.024C161.197 242.448 161.734 241.995 162.358 241.664L166.882 239.031C168.702 238.038 170.227 236.608 171.354 234.865C172.29 233.4 172.81 231.709 172.845 229.966C172.845 226.235 170.227 225.887 165.01 228.92C161.803 230.768 158.909 233.121 156.448 235.893C156.222 236.155 155.962 236.399 155.685 236.608C155.477 236.713 155.217 236.643 155.078 236.469L153.536 234.725C153.362 234.568 153.258 234.342 153.258 234.098C153.293 233.697 153.466 233.331 153.744 233.034C155.286 231.099 157.02 229.356 158.943 227.804C161.179 225.974 163.554 224.335 166.067 222.888C168.321 221.476 170.817 220.482 173.434 219.942C175.098 219.541 176.848 219.889 178.235 220.901C179.483 222.103 180.124 223.812 179.968 225.555C179.934 227.473 179.5 229.373 178.72 231.117C177.888 233.139 176.71 235.004 175.254 236.626C176.779 236.12 178.443 236.416 179.691 237.445C180.766 238.7 181.303 240.356 181.164 242.013C181.026 245.883 179.691 249.596 177.316 252.647C174.404 256.57 170.695 259.812 166.431 262.166C160.33 265.757 155.858 267.413 153.033 267.117Z" fill="white"/>
<path d="M516.505 456.393L516.834 456.097C517.077 455.887 517.337 455.678 517.562 455.452L518.342 454.684L519.122 453.935C519.573 453.499 520.006 453.046 520.422 452.575L526.593 457.212L530.701 460.298C529.21 461.937 527.98 463.802 527.096 465.825C527.096 465.825 525.865 467.829 521.688 466.818C516.523 465.615 515.708 457.979 516.505 456.393Z" fill="#FFA8A7"/>
<path d="M456.065 454.266C451.351 448.757 455.545 439.604 460.121 427.732C465.148 414.675 472.913 392.482 472.913 392.482L528.049 381.028C528.049 381.028 586.791 379.895 592.181 391.191C596.549 400.24 557.862 413.855 552.315 414.343L518.36 416.139L514.789 417.882L490.939 448.234L456.065 454.266Z" fill="#0050FF"/>
<path d="M557.654 400.449C553.373 404.824 549.386 409.479 545.711 414.395C535.78 428.342 520.059 453.673 520.059 453.673C520.059 453.673 522.503 461.693 530.008 461.344C530.008 461.344 581.66 412.826 585.889 408.346C592.285 401.547 597.416 390.337 586.357 389.413C575.299 388.489 561.952 395.776 557.654 400.449Z" fill="#0050FF"/>
<path d="M545.434 414.674C545.434 414.674 554.655 401.111 564.206 395.498C564.206 395.498 554.707 397.38 540.321 414.988L545.434 414.674Z" fill="#0050FF"/>
<path opacity="0.1" d="M545.434 414.674C545.434 414.674 554.655 401.111 564.206 395.498C564.206 395.498 554.707 397.38 540.321 414.988L545.434 414.674Z" fill="black"/>
<path d="M551.709 431.829L548.086 432.526L551.449 445.026C551.449 445.026 554.707 444.712 555.834 444.782C557.48 444.399 559.058 443.771 560.531 442.952L559.664 435.316L555.678 431.132L551.709 431.829Z" fill="#FFA8A7"/>
<path d="M580.308 434.775C583.809 436.188 586.548 439.012 587.9 442.551C588.68 444.381 589.304 446.264 589.789 448.199C590.361 450.222 590.084 453.656 587.536 454.214C586.704 454.318 585.872 454.162 585.126 453.778C580.013 451.791 575.021 449.489 569.787 447.816C565.298 446.142 560.6 445.113 555.834 444.765C558.052 441.33 557.896 436.85 555.418 433.59C554.395 432.631 553.095 432.021 551.708 431.847C553.026 431.254 554.256 430.487 555.522 429.772C557.879 428.116 560.756 427.401 563.616 427.767C565.8 428.238 567.464 429.981 569.319 431.254C572.855 433.572 576.269 433.416 580.308 434.775Z" fill="#263238"/>
<path d="M463.501 442.289C468.06 440.877 475.339 439.622 496.936 438.506C518.533 437.39 548.086 432.509 548.086 432.509C553.112 437.373 551.448 445.009 551.448 445.009C551.448 445.009 513.091 457.212 500.594 458.834C480.695 461.414 473.831 461.222 464.853 459.287C454.765 457.108 448.404 446.944 463.501 442.289Z" fill="#0050FF"/>
<path d="M542.435 338.821L558.659 377.82L547.046 385.003L524.721 346.98L542.435 338.821Z" fill="#F28F8F"/>
<path d="M508.879 302.071C517.753 302.176 527.512 305.418 530.874 312.409L544.741 341.175C544.741 341.175 536.906 352.716 524.461 351.896L508.879 302.071Z" fill="#E0E0E0"/>
<path d="M449.877 362.688C449.981 361.171 452.148 353.762 454.47 345.777L471.318 351.635L466.794 365.983L452.599 379.528C449.531 374.49 448.543 368.441 449.877 362.688Z" fill="#FFA8A7"/>
<path d="M490.731 302.612C480.158 305.174 465.754 308.504 461.577 320.045C457.4 331.586 451.42 351.966 451.42 351.966C453.743 356.011 466.482 359.358 470.902 357.022L472.982 350.048V392.447C481.25 401.495 522.034 399.176 528.118 380.993V323.235C528.118 313.996 523.022 302.891 508.931 302.071L490.731 302.612Z" fill="#FAFAFA"/>
<path d="M472.93 350.083L478.234 333.295L472.93 357.597V350.083Z" fill="#E0E0E0"/>
<path d="M486.71 255.349C484.803 255.105 482.879 255.75 481.51 257.093C479.274 259.394 479.777 263.648 481.51 273.41L488.443 274.195L486.71 255.349Z" fill="#263238"/>
<path d="M526.94 252.525C528.43 252.525 529.886 252.229 531.256 251.636C533.37 250.416 533.925 252.839 532.764 254.931C531.204 257.999 528.17 260.039 524.756 260.3C524.756 260.004 522.78 254.879 522.78 254.879L526.94 252.525Z" fill="#263238"/>
<path d="M489.951 274.299C488.929 274.91 487.455 272.94 486.19 271.597C484.578 269.749 481.77 269.558 479.933 271.179C479.413 271.632 479.014 272.19 478.754 272.818C476.657 277.263 481.423 283.173 484.214 285.126C485.826 286.52 488.131 286.712 489.951 285.614L490.679 302.612C493.192 308.138 498.288 312.043 504.268 312.985C514.183 314.327 512.137 306.098 508.879 302.071V295.847C511.357 296.388 513.905 296.51 516.436 296.231C517.719 295.882 520.804 292.134 522.797 287.933C525.033 283.225 528.76 274.857 525.449 260.684C521.879 245.482 505.638 244.994 495.983 251.148C486.329 257.302 489.951 274.299 489.951 274.299Z" fill="#FFA8A7"/>
<path d="M489.951 276.025C489.431 276.025 487.472 272.765 486.19 271.597C484.456 269.976 486.71 255.349 486.71 255.349C486.71 255.349 484.976 249.788 488.443 246.109C491.91 242.431 498.704 243.041 503.661 242.867C509.728 242.902 515.76 241.681 521.341 239.293C528.378 236.225 528.898 235.806 529.765 238.962C530.632 242.117 530.978 249.178 526.784 253.937L524.496 257.685C524.496 257.685 522.364 259.429 515.829 260.3C509.295 261.172 498.098 257.563 496.763 257.372C494.856 257.11 494.458 258.958 493.435 264.014C492.464 268.459 491.684 275.991 489.951 276.025Z" fill="#263238"/>
<path d="M486.727 256.482L480.522 253.135C481.371 251.409 483.451 250.694 485.167 251.549C485.185 251.549 485.202 251.566 485.219 251.584C486.935 252.56 487.594 254.704 486.727 256.482Z" fill="#263238"/>
<path d="M508.861 295.847C508.861 295.847 499.675 293.982 496.468 292.361C494.579 291.367 493.036 289.815 492.031 287.933C492.516 289.833 493.383 291.611 494.562 293.163C496.902 296.179 508.861 298.393 508.861 298.393V295.847Z" fill="#F28F8F"/>
<path d="M509.156 273.951C509.121 274.979 508.272 275.764 507.25 275.729C506.227 275.694 505.447 274.84 505.482 273.811C505.516 272.818 506.331 272.033 507.319 272.033C508.359 272.051 509.173 272.905 509.156 273.951Z" fill="#263238"/>
<path d="M507.215 266.977L503.263 269.157C502.691 268.023 503.089 266.646 504.181 266.001C505.256 265.408 506.591 265.809 507.163 266.89C507.163 266.925 507.197 266.943 507.215 266.977Z" fill="#263238"/>
<path d="M508.064 286.329L512.276 287.933C511.895 289.101 510.629 289.728 509.468 289.345C509.451 289.345 509.433 289.345 509.416 289.327C508.237 288.857 507.631 287.532 508.064 286.329Z" fill="#F28F8F"/>
<path d="M525.57 268.512L521.982 265.722C522.676 264.728 524.045 264.502 525.033 265.199C525.05 265.217 525.085 265.234 525.102 265.251C526.09 266.036 526.298 267.466 525.57 268.512Z" fill="#263238"/>
<path d="M524.461 273.428C524.426 274.456 523.577 275.241 522.555 275.206C521.532 275.171 520.752 274.317 520.787 273.288C520.821 272.295 521.636 271.51 522.624 271.51C523.664 271.528 524.478 272.382 524.461 273.428Z" fill="#263238"/>
<path d="M515.795 273.201L514.061 284.219L520.128 283.504L515.795 273.201Z" fill="#F28F8F"/>
<path d="M579.025 398.322L541.673 376.634C541.014 376.251 540.182 376.251 539.523 376.634L474.022 414.674L512.432 437.059L579.025 398.322Z" fill="#37474F"/>
<path d="M512.085 433.799L491.944 422.119L550.842 387.914L571.087 399.542L512.085 433.799Z" fill="#263238"/>
<path d="M502.188 401.303L502.57 401.512L512.432 407.248L529.99 397.049L530.354 396.84L520.111 390.895L502.188 401.303Z" fill="#263238"/>
<path d="M502.57 401.512L512.432 407.248L529.99 397.049L520.111 391.314L502.57 401.512Z" fill="#263238"/>
<path d="M474.022 414.674V415.564C474.022 416.836 474.664 418.039 475.756 418.702L510.56 438.907C511.669 439.552 513.056 439.552 514.165 438.907L577.153 402.297C578.228 401.634 578.887 400.431 578.887 399.159V398.269L512.432 437.059L474.022 414.674Z" fill="#263238"/>
<path d="M512.432 437.059V439.465C513.039 439.465 513.645 439.291 514.165 438.977L577.153 402.366C578.228 401.704 578.886 400.501 578.886 399.228V398.339L512.432 437.059Z" fill="#263238"/>
<path d="M513.455 437.53C514.668 438.001 516.02 437.879 517.129 437.233L579.84 400.815C580.949 400.187 581.694 399.071 581.902 397.816L588.836 356.656C588.836 356.412 588.836 356.185 588.836 355.941C588.836 354.79 588.385 353.692 587.57 352.89L522.398 390.738C521.584 391.209 521.029 392.028 520.873 392.952L513.455 437.53Z" fill="#263238"/>
<path d="M512.432 437.059L512.865 437.303C513.056 437.408 513.247 437.512 513.455 437.6L520.873 393.022C521.029 392.098 521.584 391.279 522.398 390.808L587.57 352.96C587.31 352.716 587.016 352.489 586.704 352.297L521.41 390.145C520.596 390.616 520.024 391.436 519.868 392.36L512.432 437.059Z" fill="#455A64"/>
<path d="M548.762 399.507C549.75 396.073 552.02 393.144 555.088 391.331C558.122 389.588 560.202 390.372 559.751 393.074C558.763 396.509 556.492 399.438 553.424 401.251C550.391 403.081 548.311 402.192 548.762 399.507Z" fill="#37474F"/>
<path d="M466.794 365.948C466.794 365.948 478.043 409.532 482.793 412.652C487.542 415.773 496.382 418.057 500.611 419.626C504.84 421.195 506.764 423.339 506.036 423.932C505.308 424.524 499.207 425.169 497.092 425.919C494.978 426.669 497.716 430.103 502.396 433.747C507.076 437.39 511.063 437.059 510.543 439.482C510.023 441.906 499.588 444.329 490.783 439.134C481.978 433.939 479.309 426.93 474.057 420.985C468.805 415.041 456.811 390.337 452.599 379.528C452.599 379.528 452.997 359.445 459.532 360.718C466.066 361.99 466.794 365.948 466.794 365.948Z" fill="#FFA8A7"/>
<path d="M520.318 454.266C521.116 456.201 523.872 461.536 530.007 461.24L545.087 447.049L520.318 454.266Z" fill="#0050FF"/>
<path opacity="0.1" d="M520.318 454.266C521.116 456.201 523.872 461.536 530.007 461.24L545.087 447.049L520.318 454.266Z" fill="black"/>
<path d="M524.877 479.231C524.738 474.663 525.484 470.113 527.078 465.842C525.605 466.87 523.716 467.132 522.034 466.504C516.99 464.988 515.725 457.91 516.523 456.375C515.795 457.021 515.032 457.631 514.287 458.258C511.895 459.88 510.196 462.338 509.52 465.145C509.173 467.359 510.196 469.538 510.699 471.734C511.669 475.918 510.699 480.277 510.543 484.566C510.612 488.349 512.241 491.94 515.032 494.468C516.453 495.862 517.978 497.135 519.608 498.286C521.185 500.064 523.906 500.238 525.674 498.634C526.645 497.763 527.182 496.508 527.113 495.2C526.454 489.761 525.189 484.897 524.877 479.231Z" fill="#263238"/>
<path d="M530.597 460.333C530.129 461.222 529.713 462.076 529.349 462.931C529.782 462.094 530.198 461.222 530.597 460.333Z" fill="#37474F"/>
</g>
<defs>
<clipPath id="clip0_46_165">
<rect width="770" height="549" fill="white"/>
</clipPath>
</defs>
</svg>
