<svg width="724" height="481" viewBox="0 0 724 481" fill="none" xmlns="http://www.w3.org/2000/svg">
<path d="M21.0732 383.799H701.324" stroke="black" stroke-linecap="round" stroke-linejoin="round"/>
<path d="M603.468 420.875C660.056 420.875 705.929 416.297 705.929 410.649C705.929 405.001 660.056 400.423 603.468 400.423C546.881 400.423 501.008 405.001 501.008 410.649C501.008 416.297 546.881 420.875 603.468 420.875Z" fill="white" stroke="black" stroke-linecap="round" stroke-linejoin="round"/>
<path d="M174.561 424.752C245.064 424.752 302.217 419.941 302.217 414.006C302.217 408.072 245.064 403.261 174.561 403.261C104.059 403.261 46.9055 408.072 46.9055 414.006C46.9055 419.941 104.059 424.752 174.561 424.752Z" fill="white" stroke="black" stroke-linecap="round" stroke-linejoin="round"/>
<path d="M403.876 78.4992L400.497 101.116C400.497 106.003 429.602 78.3164 429.602 78.3164L403.876 78.5088V78.4992Z" fill="white" stroke="black" stroke-linecap="round" stroke-linejoin="round"/>
<path d="M378.613 73.7754L406.898 79.0664L421.156 95.6128C421.812 95.9495 422.613 95.8148 423.125 95.2953L448.957 68.8211C450.029 67.7244 449.179 65.887 447.644 65.9928L379.279 70.6296C377.58 70.7451 377.117 73.0058 378.623 73.785L378.613 73.7754Z" fill="#0D58FF"/>
<path d="M447.635 65.9836L438.3 66.6185C438.783 67.2342 444.478 65.7527 443.841 66.4165L418.916 92.2847L421.156 95.6228C421.812 95.9595 422.613 95.8248 423.125 95.3053L448.957 68.8311C450.029 67.7344 449.179 65.897 447.644 66.0028L447.635 65.9836Z" fill="white"/>
<path d="M378.613 73.7754L406.898 79.0664L421.156 95.6128C421.812 95.9495 422.613 95.8148 423.125 95.2953L448.957 68.8211C450.029 67.7244 449.179 65.887 447.644 65.9928L379.279 70.6296C377.58 70.7451 377.117 73.0058 378.623 73.785L378.613 73.7754Z" stroke="black" stroke-linecap="round" stroke-linejoin="round"/>
<path d="M449.43 65.9836C442.393 68.4944 434.516 69.1678 427.257 70.9186C417.188 73.3429 406.618 76.3251 397.968 82.2029C394.03 84.8869 390.362 88.3693 388.663 92.9196C385.824 100.5 389.956 107.023 395.98 111.813C400.295 115.248 405.363 117.576 410.373 119.875C420.219 124.396 430.066 128.918 439.922 133.429C452.027 138.98 469.055 142.559 475.9 155.248C481.865 166.311 473.834 177.2 465.165 183.867C457.568 189.706 448.166 193.333 438.609 194.093" stroke="black" stroke-linecap="round" stroke-linejoin="round"/>
<path d="M694.886 283.684C699.056 294.988 693.447 306.291 691.671 306.291" stroke="black" stroke-linecap="round" stroke-linejoin="round"/>
<path d="M698.081 304.54C697.193 306.666 695.272 311.313 692.598 311.775" stroke="black" stroke-linecap="round" stroke-linejoin="round"/>
<path d="M661.138 321.164C661.138 321.164 662.788 313.91 673.639 313.91C687.153 313.91 689.904 293.198 687.549 283.684C676.313 287.686 650.722 305.801 650.722 305.801L650.915 320.404L661.128 321.164H661.138Z" fill="white" stroke="black" stroke-linecap="round" stroke-linejoin="round"/>
<path d="M654.293 391.053L615.989 336.777L649.978 313.92L652.701 315.536C676.93 326.772 665.829 351.755 680.328 368.34L654.293 391.063V391.053Z" fill="#B5846B"/>
<path d="M658.975 386.484L621.346 333.169L615.989 336.767L654.293 391.043L680.328 368.321C680.251 368.225 680.174 368.129 680.097 368.042L658.966 386.484H658.975Z" fill="white"/>
<path d="M654.293 391.053L615.989 336.777L649.978 313.92L652.701 315.536C676.93 326.772 665.829 351.755 680.328 368.34L654.293 391.063V391.053Z" stroke="black" stroke-linecap="round" stroke-linejoin="round"/>
<path d="M530.557 399.211L538.029 329.552L578.312 338.345L579.287 341.346C590.079 365.714 565.222 377.21 565.164 399.211H530.557Z" fill="#B5846B"/>
<path d="M538.029 329.552L530.557 399.211H537.092L544.409 330.947L538.029 329.552Z" fill="white"/>
<path d="M530.557 399.211L538.029 329.552L578.312 338.345L579.287 341.346C590.079 365.714 565.222 377.21 565.164 399.211H530.557Z" stroke="black" stroke-linecap="round" stroke-linejoin="round"/>
<path d="M650.731 244.531C642.545 234.997 640.19 221.626 635.798 212.862C623.856 215.017 612.716 220.519 603.729 228.812C603.633 228.908 603.526 228.994 603.43 229.081C588.583 242.616 566.429 244.512 549.13 234.257L540.587 229.197C540.587 229.197 532.362 272.006 529.08 309.947L527.584 327.205C527.584 327.205 544.197 354.574 580.329 343.973C584.789 342.664 593.844 336.902 615.989 336.767C621.375 336.739 637.332 337.017 641.85 334.122C648.385 329.928 648.221 328.283 650.934 320.394C652.44 316.007 655.23 305.089 667.547 305.676C680.328 306.272 674.295 289.966 686.767 285.108C692.347 282.934 667.547 264.107 650.741 244.521L650.731 244.531Z" fill="white" stroke="black" stroke-linecap="round" stroke-linejoin="round"/>
<path d="M678.658 369.023L655.5 389.244C655.21 389.495 655.027 389.841 654.969 390.216L652.865 403.732C652.633 405.223 654.4 406.195 655.539 405.204L686.613 378.085C687.288 377.498 687.356 376.469 686.767 375.796L680.956 369.187C680.367 368.513 679.334 368.446 678.658 369.033V369.023Z" fill="#0D58FF" stroke="black" stroke-linecap="round" stroke-linejoin="round"/>
<path d="M624.503 178.105C617.842 172.929 626.733 169.812 626.733 169.812C650.586 173.968 647.826 168.215 656.272 168.523C663.116 168.773 641.927 148.417 635.353 146.407C626.984 143.838 629.301 131.044 611.066 128.033C602.658 126.647 590.726 129.668 586.826 131.804C583.949 132.227 581.131 133.025 578.437 134.17L573.109 136.45C571.043 137.335 568.89 138.009 566.68 138.47L563.156 139.211C559.874 139.894 556.312 138.932 552.972 138.634C547.334 138.134 541.871 140.212 536.677 142.443L528.877 145.801C528.308 145.878 527.738 145.974 527.169 146.109C521.203 147.494 514.754 153.603 512.042 159.673C510.497 163.136 508.441 166.349 505.69 168.956L503.972 170.582C500.255 174.093 497.668 178.586 496.452 183.502C502.688 185.291 507.746 189.543 510.816 195.094C512.08 196.075 513.2 197.268 514.137 198.643C517.042 202.934 521.908 205.512 527.101 205.512H536.494L540.606 229.206L549.149 234.266C566.448 244.512 588.602 242.626 603.449 229.091C603.546 229.004 603.652 228.908 603.748 228.821C614.56 218.845 628.49 212.891 643.192 211.967L646.407 211.765C644.852 201.703 632.583 184.377 624.522 178.114L624.503 178.105Z" fill="#0D58FF"/>
<path d="M624.503 178.105C617.842 172.929 626.733 169.812 626.733 169.812C650.586 173.968 647.826 168.215 656.272 168.523C663.116 168.773 641.927 148.417 635.353 146.407C626.984 143.838 629.301 131.044 611.066 128.033C602.658 126.647 590.726 129.668 586.826 131.804C583.949 132.227 581.131 133.025 578.437 134.17L573.109 136.45C571.043 137.335 568.89 138.009 566.68 138.47L563.156 139.211C559.874 139.894 556.312 138.932 552.972 138.634C547.334 138.134 541.871 140.212 536.677 142.443L528.877 145.801C528.308 145.878 527.738 145.974 527.169 146.109C521.203 147.494 514.754 153.603 512.042 159.673C510.497 163.136 508.441 166.349 505.69 168.956L503.972 170.582C500.255 174.093 497.668 178.586 496.452 183.502C502.688 185.291 507.746 189.543 510.816 195.094C512.08 196.075 513.2 197.268 514.137 198.643C517.042 202.934 521.908 205.512 527.101 205.512H536.494L540.606 229.206L549.149 234.266C566.448 244.512 588.602 242.626 603.449 229.091C603.546 229.004 603.652 228.908 603.748 228.821C614.56 218.845 628.49 212.891 643.192 211.967L646.407 211.765C644.852 201.703 632.583 184.377 624.522 178.114L624.503 178.105Z" fill="#0D58FF" stroke="black" stroke-linecap="round" stroke-linejoin="round"/>
<path d="M625.488 178.913C625.777 179.769 626.472 180.721 627.805 181.751C629.021 182.703 630.343 183.906 631.705 185.3C629.561 182.77 627.428 180.567 625.488 178.922V178.913Z" fill="white"/>
<path d="M507.263 174.237L508.982 172.612C511.743 170.005 513.799 166.792 515.334 163.328C518.046 157.258 524.495 151.14 530.46 149.764C531.03 149.63 531.599 149.533 532.169 149.456L539.969 146.099C545.162 143.867 550.636 141.789 556.264 142.289C559.604 142.588 563.166 143.55 566.448 142.867L569.971 142.126C572.172 141.664 574.325 140.991 576.401 140.106L581.729 137.826C584.413 136.681 587.241 135.883 590.118 135.459C594.018 133.324 605.949 130.303 614.357 131.688C620.178 132.65 623.905 134.613 626.55 136.912C623.808 133.179 619.792 129.485 611.056 128.042C602.648 126.657 590.716 129.678 586.817 131.813C583.94 132.237 581.121 133.035 578.428 134.18L573.099 136.46C571.033 137.345 568.871 138.018 566.67 138.48L563.147 139.221C559.864 139.904 556.302 138.942 552.962 138.643C547.325 138.143 541.861 140.221 536.667 142.453L528.868 145.81C528.298 145.887 527.728 145.984 527.159 146.118C521.193 147.503 514.745 153.612 512.032 159.682C510.488 163.146 508.431 166.359 505.68 168.966L503.962 170.591C500.245 174.103 497.658 178.595 496.442 183.511C497.813 183.906 499.126 184.425 500.371 185.041C501.751 180.952 504.087 177.239 507.263 174.237Z" fill="white"/>
<path d="M514.33 198.932C515.16 200.096 516.135 201.125 517.216 202.01C516.386 200.837 515.411 199.807 514.33 198.932Z" fill="white"/>
<path d="M539.785 209.158H537.112L540.587 229.206L543.57 230.967L539.785 209.158Z" fill="white"/>
<path d="M508.991 192.294C509.648 193.189 510.256 194.122 510.797 195.103C511.907 195.969 512.901 197.008 513.76 198.172C512.467 195.969 510.864 193.987 508.982 192.294H508.991Z" fill="white"/>
<path d="M624.503 178.105C617.842 172.929 626.733 169.812 626.733 169.812C650.586 173.968 647.826 168.215 656.272 168.523C663.116 168.773 641.927 148.417 635.353 146.407C626.984 143.838 629.301 131.044 611.066 128.033C602.658 126.647 590.726 129.668 586.826 131.804C583.949 132.227 581.131 133.025 578.437 134.17L573.109 136.45C571.043 137.335 568.89 138.009 566.68 138.47L563.156 139.211C559.874 139.894 556.312 138.932 552.972 138.634C547.334 138.134 541.871 140.212 536.677 142.443L528.877 145.801C528.308 145.878 527.738 145.974 527.169 146.109C521.203 147.494 514.754 153.603 512.042 159.673C510.497 163.136 508.441 166.349 505.69 168.956L503.972 170.582C500.255 174.093 497.668 178.586 496.452 183.502C502.688 185.291 507.746 189.543 510.816 195.094C512.08 196.075 513.2 197.268 514.137 198.643C517.042 202.934 521.908 205.512 527.101 205.512H536.494L540.606 229.206L549.149 234.266C566.448 244.512 588.602 242.626 603.449 229.091C603.546 229.004 603.652 228.908 603.748 228.821C614.56 218.845 628.49 212.891 643.192 211.967L646.407 211.765C644.852 201.703 632.583 184.377 624.522 178.114L624.503 178.105Z" stroke="black" stroke-linecap="round" stroke-linejoin="round"/>
<path d="M559.333 218.441C565.068 226.686 580.706 225.387 588.052 223.771" stroke="black" stroke-linecap="round" stroke-linejoin="round"/>
<path d="M536.484 205.512C536.484 181.924 538.019 162.847 539.911 162.847" stroke="black" stroke-linecap="round" stroke-linejoin="round"/>
<path d="M569.914 137.393C568.63 143.896 564.575 148.793 560.849 148.34C557.132 147.888 555.154 142.251 556.428 135.767C557.702 129.283 561.756 124.377 565.483 124.82C569.209 125.262 571.197 130.89 569.923 137.393H569.914Z" fill="white" stroke="black" stroke-linecap="round" stroke-linejoin="round"/>
<path d="M563.697 398.634H532.574C532.246 398.634 531.937 398.749 531.686 398.951L520.585 408.225C519.6 409.052 520.18 410.659 521.473 410.659H563.706C564.469 410.659 565.087 410.043 565.087 409.283V400.009C565.087 399.249 564.469 398.634 563.706 398.634H563.697Z" fill="#0D58FF" stroke="black" stroke-linecap="round" stroke-linejoin="round"/>
<path d="M644.968 171.804L593.207 167.369C593.207 167.369 587.676 158.624 582 155.777C576.323 152.929 573.447 155.065 572.423 157.518C572.423 157.518 572.723 155.151 567.664 155.777C563.079 156.344 562.924 157.826 563.156 158.778C563.156 158.778 551.63 152.881 549.497 157.249C546.765 162.847 557.152 166.618 557.152 166.618C557.152 166.618 550.163 168.706 550.047 173.766C549.941 178.23 556.022 181.808 562.046 188.869C575.686 204.887 633.104 203.704 633.104 203.704C641.049 203.906 648.395 198.788 650.557 190.909C651.069 189.052 650.905 186.647 650.471 184.319C649.631 179.788 647.681 175.527 644.959 171.804H644.968Z" fill="#B5846B"/>
<path d="M645.084 174.997C645.596 174.757 646.107 174.536 646.638 174.324C646.117 173.458 645.567 172.612 644.978 171.794L593.217 167.359C593.217 167.359 587.685 158.615 582.009 155.767C576.333 152.92 573.456 155.055 572.433 157.508C572.433 157.508 572.732 155.142 567.674 155.767C563.089 156.335 562.934 157.816 563.166 158.768C563.166 158.768 551.64 152.871 549.506 157.239C548.908 158.47 548.937 159.605 549.352 160.635C549.4 160.51 549.448 160.394 549.506 160.269C551.64 155.902 563.166 161.799 563.166 161.799C562.944 160.846 563.089 159.365 567.674 158.797C572.723 158.172 572.433 160.539 572.433 160.539C573.447 158.085 575.368 155.95 581.044 158.797C586.72 161.645 591.286 170.389 591.286 170.389L644.978 174.824C645.016 174.882 645.055 174.93 645.094 174.988L645.084 174.997Z" fill="white"/>
<path d="M644.968 171.804C644.968 171.804 609.502 167.859 606.615 167.859C603.884 167.859 593.207 167.359 593.207 167.359C593.207 167.359 587.676 158.615 581.999 155.767C576.323 152.92 573.447 155.055 572.423 157.508C572.423 157.508 572.723 155.142 567.664 155.767C563.079 156.335 562.924 157.816 563.156 158.768C563.156 158.768 551.63 152.871 549.497 157.239C546.765 162.838 557.152 166.609 557.152 166.609C557.152 166.609 550.163 168.696 550.047 173.756C549.941 178.22 556.022 181.799 562.046 188.86C575.686 204.877 633.104 203.694 633.104 203.694C641.049 203.896 648.395 198.778 650.557 190.899C651.069 189.043 650.905 186.638 650.471 184.31C649.631 179.779 647.681 175.517 644.959 171.794L644.968 171.804Z" stroke="black" stroke-linecap="round" stroke-linejoin="round"/>
<path d="M582.009 162.847C582.009 162.847 584.973 168.898 582.009 171.765C579.046 174.632 576.072 172.804 573.543 167.301C571.004 161.799 572.443 157.508 572.443 157.508" stroke="black" stroke-linecap="round" stroke-linejoin="round"/>
<path d="M563.166 158.778C562.056 162.847 562.017 171.505 568.321 173.766C574.296 175.902 574.489 169.803 574.441 169.928" stroke="black" stroke-linecap="round" stroke-linejoin="round"/>
<path d="M580.329 171.746C580.329 168.187 576.941 165.31 572.761 165.31" stroke="black" stroke-linecap="round" stroke-linejoin="round"/>
<path d="M553.097 168.523C553.097 168.523 560.048 164.771 562.046 168.167C563.899 171.323 562.085 173.314 559.623 175.902" stroke="black" stroke-linecap="round" stroke-linejoin="round"/>
<path d="M574.895 181.808C574.895 177.364 572.423 175.921 568.321 173.766" stroke="black" stroke-linecap="round" stroke-linejoin="round"/>
<path d="M573.254 122.886C574.451 131.063 569.527 138.557 562.258 139.605C554.999 140.654 548.136 134.882 546.948 126.695C545.751 118.518 550.674 111.024 557.943 109.976C565.203 108.927 572.066 114.699 573.254 122.886Z" fill="#B5846B"/>
<path d="M552.904 126.695C551.785 119.019 556.051 111.958 562.577 110.245C561.081 109.87 559.527 109.745 557.934 109.976C550.674 111.024 545.751 118.518 546.939 126.695C548.136 134.872 554.989 140.654 562.249 139.605C562.683 139.538 563.098 139.442 563.513 139.336C558.194 137.97 553.821 133.073 552.895 126.695H552.904Z" fill="white"/>
<path d="M573.254 122.886C574.451 131.063 569.527 138.557 562.258 139.605C554.999 140.654 548.136 134.882 546.948 126.695C545.751 118.518 550.674 111.024 557.943 109.976C565.203 108.927 572.066 114.699 573.254 122.886Z" stroke="black" stroke-linecap="round" stroke-linejoin="round"/>
<path d="M549.864 114.853C549.864 114.853 546.977 121.106 557.741 125.541C568.504 129.976 571.603 127.253 571.603 127.253L570.724 136.354C570.724 136.354 587.985 136.402 591.286 128.446C594.587 120.491 589.481 119.99 592.763 114.42C596.045 108.86 599.694 104.31 596.045 97.6815C592.396 91.0533 584.152 93.0447 580.069 97.6815C575.985 102.318 579.113 105.589 573.717 107.407C568.321 109.226 562.982 108.004 557.953 109.966C552.924 111.929 549.873 114.853 549.873 114.853H549.864Z" fill="white" stroke="black" stroke-linecap="round" stroke-linejoin="round"/>
<path d="M555.096 197.152L542.083 198.884C538.444 200.519 534.167 198.74 532.777 195.007L521.946 164.271C520.691 160.895 522.265 157.124 525.547 155.623L538.54 153.785C542.189 152.121 546.495 153.901 547.885 157.653L558.735 188.504C560 191.9 558.407 195.681 555.096 197.162V197.152Z" fill="#0D58FF"/>
<path d="M537.855 197.431L527.024 166.695C525.769 163.319 525.923 160.404 529.215 158.903L545.848 156.652C546.842 156.2 545.655 155.555 546.668 155.584C544.728 153.304 541.436 152.458 538.54 153.776L525.547 155.613C522.255 157.114 520.681 160.885 521.946 164.262L532.777 194.997C533.791 197.72 536.339 199.403 539.061 199.48C538.559 198.884 538.135 198.201 537.845 197.422L537.855 197.431Z" fill="white"/>
<path d="M555.096 197.152L542.083 198.884C538.444 200.519 534.167 198.74 532.777 195.007L521.946 164.271C520.691 160.895 522.265 157.124 525.547 155.623L538.54 153.785C542.826 153.227 546.495 153.901 547.885 157.653L558.735 188.504C560 191.9 558.407 195.68 555.096 197.162V197.152Z" stroke="black" stroke-linecap="round" stroke-linejoin="round"/>
<path d="M557.75 197.941C551.929 213.045 529.727 224.887 517.592 229.129C510.159 233.458 499.319 230.755 493.951 223.367C488.266 215.546 488.256 204.127 494.907 195.883C496.143 194.353 498.402 184.675 500.216 184.175L510.565 191.659C511.347 191.323 512.438 190.668 513.577 189.928C515.314 188.793 517.168 187.446 518.152 186.715C518.249 186.657 518.326 186.59 518.403 186.532C518.703 186.32 518.876 186.186 518.876 186.186C518.876 186.186 518.876 186.147 518.886 186.08C519.031 184.714 520.595 170.611 523.201 169.687C523.326 169.649 523.452 169.63 523.577 169.649C523.742 169.668 523.896 169.793 524.05 169.985C524.861 171.034 525.479 174.343 526.068 176.796C526.464 178.441 526.85 179.702 527.284 179.654C547.914 177.508 551.225 165.618 555.047 172.073C557.49 176.2 553.985 179.827 553.677 182.107C553.677 182.107 557.856 181.106 557.354 185.262C557.248 186.214 556.119 189.466 556.119 189.466C558.938 190.938 559.102 194.44 557.75 197.941Z" fill="#B5846B"/>
<path d="M499.357 223.367C493.681 215.546 493.671 204.127 500.313 195.882C501.162 194.824 502.495 189.918 503.836 186.792L500.216 184.175C498.402 184.666 496.143 194.343 494.907 195.882C488.266 204.127 488.266 215.546 493.951 223.367C498.112 229.1 505.574 231.986 512.177 230.986C507.225 230.245 502.408 227.571 499.357 223.367Z" fill="white"/>
<path d="M525.585 174.728C524.804 179.25 524.273 186.195 524.273 186.195C524.273 186.195 507.061 195.882 504.57 196.979L513.567 189.937C515.305 188.802 517.158 187.455 518.143 186.724C518.239 186.667 518.316 186.599 518.394 186.541C518.693 186.33 518.867 186.195 518.867 186.195C518.867 186.195 518.867 186.157 518.876 186.089C519.021 184.723 520.585 170.62 523.191 169.697C523.375 169.918 523.684 169.976 524.041 169.995C524.852 171.044 524.987 172.275 525.576 174.728H525.585Z" fill="white"/>
<path d="M557.355 185.262C557.847 181.106 553.667 182.107 553.667 182.107C553.976 179.827 557.48 176.2 555.038 172.073C551.215 165.628 547.894 177.374 527.284 179.663L523.577 169.658C520.624 169.158 518.876 186.195 518.876 186.195L510.565 191.669L500.216 185.147C498.402 185.637 496.847 192.698 493.459 198.355C488.7 206.291 488.275 215.546 493.951 223.376C499.319 230.765 510.159 233.458 517.592 229.139C529.727 224.896 551.939 213.054 557.76 197.951C559.111 194.449 558.947 190.947 556.129 189.476C556.129 189.476 557.248 186.224 557.364 185.272L557.355 185.262Z" stroke="black" stroke-linecap="round" stroke-linejoin="round"/>
<path d="M555.839 175.979C553.957 182.982 547.923 186.186 547.923 186.186" stroke="black" stroke-linecap="round" stroke-linejoin="round"/>
<path d="M556.119 189.466C555.936 189.764 553.57 192.641 550.858 194.699" stroke="black" stroke-linecap="round" stroke-linejoin="round"/>
<path d="M502.234 197.383L515.98 188.1" stroke="black" stroke-linecap="round" stroke-linejoin="round"/>
<path d="M648.231 175.796C648.231 175.796 658.772 170.062 657.595 167.359C656.417 164.656 644.968 171.804 644.968 171.804L648.231 175.796Z" fill="white" stroke="black" stroke-linecap="round" stroke-linejoin="round"/>
<path d="M601.084 158.778L605.892 166.388" stroke="black" stroke-linecap="round" stroke-linejoin="round"/>
<path d="M638.945 219.336L636.975 212.631C636.975 212.631 639.91 212.14 646.358 211.592C646.783 217.701 638.945 219.336 638.945 219.336Z" fill="white" stroke="black" stroke-linecap="round" stroke-linejoin="round"/>
<path d="M637.786 269.764C643.192 278.018 649.042 287.167 655.944 294.988" stroke="black" stroke-linecap="round" stroke-linejoin="round"/>
<path d="M583.148 308.754C583.148 310.986 582.27 320.76 581.497 329.514" stroke="black" stroke-linecap="round" stroke-linejoin="round"/>
<path d="M593.844 280.731C593.844 283.511 600.572 306.041 607.571 322.058" stroke="black" stroke-linecap="round" stroke-linejoin="round"/>
<path d="M622.418 141.327C626.559 144.791 630.063 143.867 635.353 146.407" stroke="black" stroke-linecap="round" stroke-linejoin="round"/>
<path d="M662.711 162.414C667.547 171.323 660.877 175.911 658.618 175.911" stroke="black" stroke-linecap="round" stroke-linejoin="round"/>
<path d="M666.64 176.565C665.713 178.624 663.889 180.567 661.524 180.789" stroke="black" stroke-linecap="round" stroke-linejoin="round"/>
<path d="M604.202 95.2476C601.663 93.0831 598.449 88.6868 595.331 87.6478C590.61 86.0894 590.9 83.2323 593.506 82.7994C596.113 82.3665 604.019 84.858 606.973 88.504C611.722 94.3722 607.32 97.9124 604.202 95.2476Z" fill="white"/>
<path d="M587.174 84.5887C586.179 84.1173 585.784 82.9918 586.286 82.0586C586.788 81.1255 587.994 80.7599 588.989 81.2217C589.983 81.6931 590.379 82.8186 589.877 83.7517C589.375 84.6849 588.168 85.0504 587.174 84.5887Z" fill="white"/>
<path d="M271.317 175.555C271.317 175.247 268.778 167.965 267.59 169.389C265.38 172.044 265.1 175.411 265.1 175.411L271.317 175.565V175.555Z" fill="white" stroke="black" stroke-linecap="round" stroke-linejoin="round"/>
<path d="M125.262 243.473H121.449C121.449 243.473 113.938 256.258 116.593 270.158C119.248 284.059 118.543 315.324 118.543 315.324C115.29 318.999 112.307 313.227 111.544 317.729L111.274 317.922C96.3113 326.224 97.8172 334.661 90.751 352.409C89.7374 354.949 80.866 363.232 79.1187 365.589L85.1424 369.697C88.0191 366.503 94.9502 359.855 95.8383 357.633C102.895 339.884 101.399 331.438 116.361 323.145L116.632 322.953C117.394 318.451 120.377 324.223 123.63 320.548C123.63 320.548 124.345 289.283 121.68 275.382C119.933 266.233 123.978 247.157 125.262 243.482V243.473Z" fill="white"/>
<path d="M179.938 350.995L180.044 350.678C177.959 346.609 176.936 341.952 177.341 337.075C177.515 335.007 172.862 285.204 172.862 285.204L172.244 312.121C172.302 321.77 172.341 330.909 172.254 331.851C171.839 336.729 172.872 341.395 174.957 345.454L174.851 345.772C163.315 371.794 189.881 384.078 189.939 407.571H194.553C194.872 379.99 169.291 375.016 179.938 350.995Z" fill="white"/>
<path d="M186.541 388.484L206.688 392.592L211.852 392.717L237.173 413.987H186.541V388.484Z" fill="#0D58FF" stroke="black" stroke-linecap="round" stroke-linejoin="round"/>
<path d="M86.0788 370.812L111.959 392.65L114.855 416.806L74.2245 386.695L86.0788 370.812Z" fill="#0D58FF" stroke="black" stroke-linecap="round" stroke-linejoin="round"/>
<path d="M208.242 399.066C200.838 396.459 193.086 397.893 183.249 399.99L176.849 402.405C176.791 378.922 163.305 371.794 174.851 345.781L174.957 345.464C172.872 341.395 171.839 336.738 172.254 331.851C172.428 329.793 167.263 306.512 167.263 306.512L158.768 338.374C158.257 340.288 157.195 342.01 155.708 343.328C150.64 347.821 138.284 359.249 131.343 369.889C122.462 383.511 113.919 396.758 113.919 396.758C109.334 396.007 97.6242 390.495 91.7163 381.856C89.7857 379.028 87.7874 376.238 85.5382 373.65L77.024 363.886C78.7712 361.529 87.6523 353.246 88.6562 350.707C95.7225 332.958 94.2165 324.521 109.179 316.219C109.179 316.219 113.774 314.237 116.448 313.622C116.448 313.622 117.018 282.376 114.498 268.456C111.11 249.668 112.278 235.113 114.064 225.724C115.589 217.787 117.539 213.525 117.539 213.525L204.95 205.464C206.939 211.573 208.638 216.825 210.066 221.626C213.619 233.516 215.559 242.703 216.312 255.526C218.291 289.562 228.996 331.178 228.678 335.007C228.388 338.441 227.153 362.366 231.236 396.96C232.018 403.597 208.261 399.076 208.261 399.076L208.242 399.066Z" fill="white" stroke="black" stroke-linecap="round" stroke-linejoin="round"/>
<path d="M210.057 221.616C198.434 225.108 166.24 236.575 127.694 225.579C122.491 224.098 117.858 220.49 114.064 219.451C115.589 211.515 117.539 213.516 117.539 213.516L204.95 205.454C206.939 211.563 208.638 216.816 210.066 221.616H210.057Z" fill="white" stroke="black" stroke-linecap="round" stroke-linejoin="round"/>
<path d="M135.349 251.024C135.349 251.024 133.94 252.515 134.403 265.252C134.857 277.989 128.988 295.594 130.301 308.331C131.623 321.077 120.512 318.085 112.77 327.773C105.028 337.46 104.758 349.687 101.823 354.786C98.8888 359.884 87.131 375.555 87.131 375.555" stroke="black" stroke-linecap="round" stroke-linejoin="round"/>
<path d="M167.263 306.503L176.579 285.194L189.254 268.369C194.582 260.933 195.828 258.412 197.633 250.832C198.086 248.946 198.299 247.013 198.299 245.079V230.235" stroke="black" stroke-linecap="round" stroke-linejoin="round"/>
<path d="M183.838 275.911C183.838 275.911 188.443 327.224 192.072 336.248C195.702 345.271 191.011 347.311 190.045 356.998C189.08 366.686 188.79 368.282 190.837 381.289C192.883 394.285 193.559 398.095 193.559 398.095" stroke="black" stroke-linecap="round" stroke-linejoin="round"/>
<path d="M267.59 169.389C261.007 178.663 258.343 205.445 263.189 213.352C263.372 213.641 263.546 213.92 263.748 214.18L263.826 214.382C258.478 214.112 253.246 213.708 248.477 213.583C236.651 213.295 223.282 211.053 212.451 206.955C212.451 206.955 210.221 213.833 207.672 214.237C187.207 217.46 145.427 231.063 123.167 220.375C98.7633 208.658 117.626 198.547 122.115 172.419C123.939 161.789 111.882 141.972 115.608 131.428C120.338 117.999 127.82 112.862 148.536 109.841C155.438 108.831 161.143 109.331 172.254 108.533C174.243 108.388 178.094 108.081 181.917 107.763C189.813 107.109 197.7 109.091 204.303 113.449C210.896 117.797 218.59 124.05 222.49 131.476C227.5 141.02 229.942 164.396 229.942 164.396C229.942 164.396 236.632 168.485 245.697 169.735C252.29 170.64 260.138 168.61 267.581 169.389H267.59Z" fill="#0D58FF"/>
<path d="M209.13 211.005C209.13 211.005 208.628 212.525 207.846 214.189C208.802 213.93 209.709 212.794 210.462 211.486C210.018 211.323 209.574 211.169 209.139 211.005H209.13Z" fill="white"/>
<path d="M264.27 173.439C264.048 173.747 263.835 174.083 263.623 174.439C264.067 174.449 264.521 174.468 264.955 174.507C265.737 172.506 266.625 170.755 267.59 169.399C260.148 168.619 252.3 170.649 245.706 169.745C236.642 168.504 229.952 164.406 229.952 164.406C229.952 164.406 227.519 141.02 222.5 131.486C218.6 124.059 210.906 117.797 204.313 113.458C197.71 109.1 189.814 107.119 181.927 107.773C178.104 108.09 174.252 108.408 172.264 108.542C161.143 109.331 155.448 108.831 148.546 109.851C132.55 112.179 124.451 115.777 119.412 123.473C124.576 118.47 132.338 115.767 145.225 113.891C152.127 112.881 157.832 113.381 168.943 112.583C170.932 112.439 174.783 112.131 178.606 111.813C186.502 111.159 194.389 113.141 200.992 117.499C207.585 121.847 215.279 128.1 219.179 135.527C224.189 145.07 226.631 168.446 226.631 168.446C226.631 168.446 233.321 172.535 242.386 173.785C248.979 174.69 256.827 172.66 264.27 173.439Z" fill="white"/>
<path d="M267.59 169.389C261.007 178.663 258.343 205.445 263.189 213.352C263.372 213.641 263.546 213.92 263.748 214.18L263.826 214.382C258.478 214.112 253.246 213.708 248.477 213.583C236.651 213.295 223.282 211.053 212.451 206.955C212.451 206.955 210.221 213.833 207.672 214.237C187.207 217.46 145.427 231.063 123.167 220.375C98.7633 208.658 117.626 198.547 122.115 172.419C123.939 161.789 111.882 141.972 115.608 131.428C120.338 117.999 127.82 112.862 148.536 109.841C155.438 108.831 161.143 109.331 172.254 108.533C174.243 108.388 178.094 108.081 181.917 107.763C189.814 107.109 197.7 109.091 204.303 113.449C210.896 117.797 218.59 124.05 222.49 131.476C227.5 141.02 229.942 164.396 229.942 164.396C229.942 164.396 236.632 168.485 245.697 169.735C252.29 170.64 260.138 168.61 267.581 169.389H267.59Z" stroke="black" stroke-linecap="round" stroke-linejoin="round"/>
<path d="M199.032 139.913C198.511 140.577 201.562 161.193 209.024 176.431C215.53 189.716 214.41 201.375 212.451 206.955C210.269 213.198 207.141 214.738 207.141 214.738" stroke="black" stroke-linecap="round" stroke-linejoin="round"/>
<path d="M317.382 184.107C317.295 187.686 314.438 190.149 314.438 190.149C314.438 190.149 312.411 201.914 298.645 208.542C291.241 212.092 278.981 213.381 266.355 213.602C265.496 213.612 264.617 213.622 263.739 213.631C263.546 213.371 263.362 213.093 263.179 212.804C259.24 206.378 259.482 191.322 262.551 181.327C262.561 181.279 262.58 181.221 262.59 181.164C262.59 181.154 262.6 181.135 262.609 181.125C263.217 179.172 263.941 177.422 264.762 175.979C264.772 175.959 264.781 175.93 264.801 175.902C264.887 175.738 264.994 175.575 265.081 175.43L272.099 175.603C272.099 175.603 278.479 169.889 284.764 167.369C291.077 164.848 293.297 165.608 294.176 168.302H294.185C295.044 171.024 287.689 175.93 286.704 177.547C285.739 179.182 287.399 180.615 289.32 180.038C291.26 179.471 310.191 170.774 314.139 174.507C317.865 178.037 315.316 180.5 315.017 180.779C315.297 180.596 317.517 179.288 317.373 184.136L317.382 184.107Z" fill="#FCD8C3"/>
<path d="M294.185 168.273C292.322 168.735 290.478 169.245 288.818 169.812C280.613 172.612 273.682 181.308 273.682 181.308H262.522C262.522 181.308 262.542 181.26 262.59 181.145C262.59 181.135 262.6 181.116 262.609 181.106C262.86 180.49 263.671 178.538 264.762 175.959C264.772 175.94 264.781 175.911 264.801 175.882C264.887 175.719 264.994 175.555 265.081 175.411L272.099 175.584C272.099 175.584 278.479 169.87 284.764 167.349C291.077 164.829 293.297 165.589 294.176 168.283L294.185 168.273Z" fill="white"/>
<path d="M317.392 184.665C317.527 179.817 315.316 181.116 315.037 181.298C315.336 181.029 317.875 178.557 314.148 175.026C310.191 171.294 291.27 180 289.339 180.567C288.046 180.952 286.897 180.442 286.55 179.576C285.893 180.192 285.217 180.798 284.59 181.356C285.729 181.577 286.858 181.856 287.949 182.27C289.059 182.684 290.092 183.203 291.087 183.761C297.564 181.279 306.957 178.182 309.611 180.692C313.328 184.223 310.789 186.705 310.499 186.965C310.779 186.772 312.99 185.483 312.855 190.332C312.758 193.901 309.911 196.363 309.911 196.363C309.911 196.363 309.37 199.451 307.005 203.357C313.309 197.277 314.448 190.716 314.448 190.716C314.448 190.716 317.295 188.254 317.392 184.685V184.665Z" fill="white"/>
<path d="M314.448 190.139C314.448 190.139 312.411 201.914 298.655 208.533C291.26 212.082 278.991 213.372 266.364 213.593C265.505 213.602 264.636 213.612 263.748 213.622C263.555 213.362 263.372 213.083 263.179 212.794C259.819 207.657 259.819 184.463 265.09 175.411L272.108 175.584C272.108 175.584 278.479 169.88 284.773 167.359C291.087 164.839 293.317 165.589 294.185 168.292C295.054 171.005 287.689 175.911 286.704 177.537C285.729 179.172 287.389 180.606 289.32 180.029C291.26 179.461 310.181 170.755 314.139 174.488C317.865 178.018 315.316 180.49 315.017 180.76C315.307 180.577 317.517 179.278 317.373 184.127C317.276 187.696 314.428 190.158 314.428 190.158L314.448 190.139Z" stroke="black" stroke-linecap="round" stroke-linejoin="round"/>
<path d="M286.55 179.576C286.55 184.011 283.74 187.965 280.642 190.409" stroke="black" stroke-linecap="round" stroke-linejoin="round"/>
<path d="M315.008 181.318C315.008 181.318 309.109 186.791 296.599 190.755" stroke="black" stroke-linecap="round" stroke-linejoin="round"/>
<path d="M313.936 190.89C313.936 190.89 308.038 196.363 295.527 200.327" stroke="black" stroke-linecap="round" stroke-linejoin="round"/>
<path d="M172.708 107.609C175.285 113.41 175.15 119.403 172.418 120.981C169.686 122.559 165.391 119.144 162.823 113.352C160.255 107.561 160.371 101.578 163.103 99.9807C165.835 98.3837 170.13 101.799 172.708 107.6V107.609Z" fill="white" stroke="black" stroke-linecap="round" stroke-linejoin="round"/>
<path d="M172.843 119.894C184.495 168.446 202.778 194.699 198.347 216.036" stroke="black" stroke-linecap="round" stroke-linejoin="round"/>
<path d="M169.86 113.545C164.097 114.863 158.228 112.034 154.839 106.859C153.749 105.175 152.899 103.261 152.407 101.154C150.534 92.9773 154.54 84.9927 161.5 82.7031C161.877 82.5684 162.263 82.4626 162.639 82.376C170.275 80.6252 178.075 86.1759 180.073 94.7762C182.072 103.386 177.496 111.784 169.86 113.554V113.545Z" fill="#FCD8C3"/>
<path d="M180.073 94.7666C178.075 86.1663 170.275 80.6252 162.639 82.3664C162.263 82.453 161.877 82.5588 161.5 82.6935C161.452 82.7128 161.394 82.732 161.346 82.7512C167.534 83.3188 173.123 88.3212 174.764 95.4015C176.646 103.511 172.688 111.428 165.844 113.795C167.167 113.91 168.509 113.843 169.85 113.535C177.486 111.775 182.062 103.377 180.064 94.757L180.073 94.7666Z" fill="white"/>
<path d="M169.86 113.545C164.097 114.863 158.228 112.034 154.839 106.859C153.749 105.175 152.899 103.261 152.407 101.154C150.534 92.9773 154.54 84.9927 161.5 82.7031C161.877 82.5684 162.263 82.4626 162.639 82.376C170.275 80.6252 178.075 86.1759 180.073 94.7762C182.072 103.386 177.496 111.784 169.86 113.554V113.545Z" stroke="black" stroke-linecap="round" stroke-linejoin="round"/>
<path d="M172.206 72.9965C171.511 65.9739 165.844 58.6339 160.332 61.5968C155.66 64.1173 155.785 70.4665 159.985 75.6324C162.446 78.6627 164.116 83.9922 165.082 87.8787C164.28 85.8873 163.054 84.1076 161.5 82.6839C154.54 84.9734 150.534 92.958 152.407 101.135C152.899 103.242 153.739 105.166 154.839 106.84C161.442 105.474 166.298 99.5574 166.086 92.6213C166.086 92.6213 172.901 79.9999 172.206 72.9773V72.9965Z" fill="white" stroke="black" stroke-linecap="round" stroke-linejoin="round"/>
<path d="M153.237 109.351C153.237 109.351 163.605 131.852 167.543 129.918C171.482 127.984 172.254 121.674 172.254 121.674" stroke="black" stroke-linecap="round" stroke-linejoin="round"/>
<path d="M247.193 213.516C242.386 205.204 242.772 184.396 249.867 175.613" stroke="black" stroke-linecap="round" stroke-linejoin="round"/>
<path d="M263.826 214.382L263.748 214.18C263.546 213.92 263.372 213.641 263.189 213.352C258.825 204.839 261.007 178.672 267.59 169.389" stroke="black" stroke-linecap="round" stroke-linejoin="round"/>
<path d="M256.161 187.359C255.804 188.311 254.732 188.802 253.776 188.436C252.821 188.081 252.328 187.013 252.695 186.06C253.052 185.108 254.124 184.617 255.08 184.983C256.035 185.339 256.528 186.407 256.161 187.359Z" fill="white"/>
<path d="M215.404 117.989L214.97 118.085C211.176 118.605 207.218 115.113 206.697 111.332L202.228 83.0975L216.167 78.4991L220.444 109.447C220.965 113.227 219.198 117.47 215.404 117.989Z" fill="#0D58FF" stroke="black" stroke-linecap="round" stroke-linejoin="round"/>
<path d="M191.59 133.968C191.59 133.968 196.127 130.053 198.704 124.848C201.272 119.654 202.672 116.248 205.259 113.93C206.408 112.9 206.774 112.496 206.774 112.496C206.774 112.496 207.518 118.066 214.98 118.066C217.692 117.672 220.781 114.132 220.424 111.207L220.395 108.821C220.395 108.821 224.382 110.63 226.313 115.094C228.243 119.567 227.114 122.568 227.114 122.568C227.114 122.568 228.639 121.26 231.265 125.137C233.186 127.975 231.506 131.592 231.506 131.592C231.506 131.592 234.142 132.891 233.408 138.47C232.674 144.05 220.81 159.365 220.81 159.365L191.599 133.968H191.59Z" fill="#FCD8C3" stroke="black" stroke-linecap="round" stroke-linejoin="round"/>
<path d="M254.211 74.5839C247.396 57.5372 235.426 46.2722 227.471 49.4276C224.218 50.7166 222.143 54.2087 221.293 59.0476C219.44 69.5334 210.066 79.5863 197.304 84.8292C197.304 84.8292 197.15 84.8965 196.87 85.0119C192.574 86.8205 190.402 91.6305 191.918 96.0172L193.829 101.578C195.441 106.291 200.645 108.735 205.326 106.994C218.484 101.587 232.52 102.52 241.633 108.841C245.378 111.438 249.066 112.381 252.145 111.159C260.099 108.004 261.026 91.6209 254.221 74.5742L254.211 74.5839Z" fill="#0D58FF"/>
<path d="M202.286 82.4145C200.683 83.2996 199.032 84.1269 197.295 84.8388C197.295 84.8388 197.14 84.9061 196.86 85.0215C192.565 86.8301 190.393 91.6401 191.908 96.0268L193.82 101.587C195.441 106.301 200.635 108.754 205.317 107.003C206.967 106.32 208.638 105.782 210.308 105.31C206.176 98.3741 203.444 90.5723 202.286 82.4049V82.4145Z" fill="#0D58FF"/>
<path d="M199.38 105.666L197.469 100.106C195.963 95.7094 198.135 90.8994 202.421 89.1004C202.691 88.985 202.855 88.9176 202.855 88.9176C215.617 83.6747 224.99 73.6218 226.844 63.136C227.703 58.2972 229.778 54.8051 233.022 53.516C235.483 52.5348 238.331 52.9485 241.295 54.478C236.439 49.8989 231.448 47.8595 227.462 49.4372C224.218 50.7262 222.143 54.2183 221.283 59.0572C219.43 69.543 210.057 79.5959 197.295 84.8388C197.295 84.8388 197.14 84.9061 196.86 85.0215C192.574 86.8301 190.393 91.6401 191.908 96.0268L193.82 101.587C194.843 104.569 197.295 106.628 200.143 107.311C199.834 106.801 199.583 106.243 199.38 105.656V105.666Z" fill="white"/>
<path d="M254.211 74.5839C247.396 57.5372 235.426 46.2722 227.471 49.4276C224.218 50.7166 222.143 54.2087 221.293 59.0476C219.44 69.5334 210.066 79.5863 197.304 84.8292C197.304 84.8292 197.15 84.8965 196.87 85.0119C192.574 86.8205 190.402 91.6305 191.918 96.0172L193.829 101.578C195.441 106.291 200.645 108.735 205.326 106.994C218.484 101.587 232.52 102.52 241.633 108.841C245.378 111.438 249.066 112.381 252.145 111.159C260.099 108.004 261.026 91.6209 254.221 74.5742L254.211 74.5839Z" stroke="black" stroke-linecap="round" stroke-linejoin="round"/>
<path d="M203.376 83.3765C200.818 88.2058 205.375 100.856 210.906 105.108" stroke="black" stroke-linecap="round" stroke-linejoin="round"/>
<path d="M253.526 111.986C248.39 114.363 240.928 108.494 234.692 98.0855C232.578 94.555 230.589 90.5049 228.89 86.0797C227.133 81.5199 225.849 77.0081 225.01 72.7753C222.673 60.7791 224.035 50.9956 229.112 48.6195C235.976 45.3968 247.029 56.9792 253.786 74.4973C260.524 92.0153 260.408 108.812 253.516 111.967L253.526 111.986Z" fill="white" stroke="black" stroke-linecap="round" stroke-linejoin="round"/>
<path d="M244.142 89.6103L234.682 98.0759C232.568 94.5453 230.58 90.4953 228.881 86.0701C227.124 81.5102 225.84 76.9984 225 72.7656L237.897 71.5247L244.133 89.6006L244.142 89.6103Z" fill="#0D58FF" stroke="black" stroke-linecap="round" stroke-linejoin="round"/>
<path d="M246.961 77.9701C248.786 83.3957 248.438 88.5905 246.179 89.5814C243.92 90.5723 240.619 86.984 238.795 81.5679C236.97 76.1519 237.318 70.9571 239.576 69.9566C241.835 68.9561 245.137 72.5444 246.971 77.9701H246.961Z" fill="#0D58FF" stroke="black" stroke-linecap="round" stroke-linejoin="round"/>
<path d="M85.5382 373.641C85.5382 373.641 74.9195 360.673 76.1552 365.416C77.3908 370.158 81.8603 375.546 81.8603 375.546L85.5382 373.631V373.641Z" fill="white" stroke="black" stroke-linecap="round" stroke-linejoin="round"/>
<path d="M149.173 61.5968C149.202 65.1851 148.217 71.7363 149.27 74.1798C150.853 77.8739 148.932 81.212 147.252 80.7406C145.572 80.2692 142.85 74.2183 143.506 68.6868C144.568 59.7786 149.125 57.1716 149.173 61.5872V61.5968Z" fill="white"/>
<path d="M151.789 81.01C152.04 81.9528 151.548 83.4823 150.708 84.4059C149.868 85.339 148.98 85.3198 148.729 84.377C148.478 83.4342 148.97 81.9047 149.81 80.9811C150.65 80.048 151.538 80.0672 151.789 81.01Z" fill="white"/>
<path d="M271.037 55.1899L260.447 64.7426" stroke="black" stroke-linecap="round" stroke-linejoin="round"/>
<path d="M291.704 60.4521L264.337 74.2375" stroke="black" stroke-linecap="round" stroke-linejoin="round"/>
<path d="M284.474 80.6637L267.803 84.0211" stroke="black" stroke-linecap="round" stroke-linejoin="round"/>
<path d="M299.195 96.0557L268.662 93.2755" stroke="black" stroke-linecap="round" stroke-linejoin="round"/>
<path d="M118.987 152.852C118.987 152.852 148.43 193.083 155.853 200.336C171.945 216.046 192.603 207.879 203.386 188.725C206.736 182.78 223.282 160.596 223.282 160.596C223.282 160.596 218.011 150.245 209.477 142.78C205.713 139.49 192.372 133.882 190.885 132.439C189.003 130.601 187.574 130.024 187.574 130.024L173.895 149.168C166.896 137.73 159.608 126.782 153.256 121.683" fill="#0D58FF"/>
<path d="M209.477 142.78C205.713 139.49 192.372 133.882 190.885 132.439C189.003 130.601 187.574 130.024 187.574 130.024L173.895 149.168C166.896 137.73 159.608 126.782 153.256 121.683C154.762 124.04 164.966 141.895 171.405 152.592C171.887 153.391 166.858 159.269 167.273 159.961L188.076 134.699C188.076 134.699 206.215 144.165 209.979 147.455C215.202 152.025 218.503 160.231 220.82 163.925C222.326 161.895 223.282 160.596 223.282 160.596C223.282 160.596 218.011 150.245 209.477 142.78Z" fill="white"/>
<path d="M118.987 152.852C118.987 152.852 148.43 193.083 155.853 200.336C171.945 216.046 192.603 207.879 203.386 188.725C206.736 182.78 223.282 160.596 223.282 160.596C223.282 160.596 218.011 150.245 209.477 142.78C205.713 139.49 192.372 133.882 190.885 132.439C189.003 130.601 187.574 130.024 187.574 130.024L173.895 149.168C166.896 137.73 159.608 126.782 153.256 121.683" stroke="black" stroke-linecap="round" stroke-linejoin="round"/>
<path d="M166.25 159.374L176.569 145.685" stroke="black" stroke-linecap="round" stroke-linejoin="round"/>
<path d="M145.794 236.469C145.794 246.157 133.805 254.006 118.997 254.006" stroke="black" stroke-linecap="round" stroke-linejoin="round"/>
<path d="M200.499 216.383L190.239 217.869C187.406 218.28 185.443 220.901 185.855 223.725L186.492 228.094C186.904 230.918 189.535 232.874 192.368 232.463L202.628 230.977C205.461 230.567 207.424 227.945 207.012 225.122L206.375 220.752C205.963 217.929 203.332 215.973 200.499 216.383Z" fill="white" stroke="black" stroke-linecap="round" stroke-linejoin="round"/>
<path d="M132.395 175.565C130.619 179.692 121.101 184.993 116.776 189.716" stroke="black" stroke-linecap="round" stroke-linejoin="round"/>
<path d="M180.546 108.004C180.546 108.004 185.286 127.071 180.546 126.397C175.807 125.724 173.026 120.616 173.026 120.616" stroke="black" stroke-linecap="round" stroke-linejoin="round"/>
<path d="M232.539 166.118C227.79 165.454 225.048 166.878 221.814 170.072" stroke="black" stroke-linecap="round" stroke-linejoin="round"/>
<path d="M182.651 146.609C182.651 146.609 188.24 148.687 196.445 153.939C209.477 162.28 213.966 173.285 213.966 173.285" stroke="black" stroke-linecap="round" stroke-linejoin="round"/>
<path d="M193.327 142.857C192.97 143.809 191.899 144.3 190.943 143.934C189.987 143.578 189.495 142.511 189.862 141.558C190.219 140.606 191.29 140.115 192.246 140.481C193.202 140.837 193.694 141.905 193.327 142.857Z" fill="white"/>
<path d="M192.381 232.448C192.381 232.448 193.559 253.997 189.263 268.369" stroke="black" stroke-linecap="round" stroke-linejoin="round"/>
<path d="M299.485 219.855C302.246 218.797 313.367 211.534 314.747 208.032" stroke="black" stroke-linecap="round" stroke-linejoin="round"/>
<path d="M308.376 220.183C309.264 219.692 313.405 217.268 315.674 214.738" stroke="black" stroke-linecap="round" stroke-linejoin="round"/>
<path d="M100.095 313.285C95.79 314.074 90.1235 325.858 90.1235 327.58" stroke="black" stroke-linecap="round" stroke-linejoin="round"/>
<path d="M88.8879 315.055C87.6523 316.286 84.9011 320.558 85.5382 322.472" stroke="black" stroke-linecap="round" stroke-linejoin="round"/>
<path d="M510.642 239.769H235.02C230.531 239.769 226.892 243.395 226.892 247.869V408.254C226.892 412.727 230.531 416.354 235.02 416.354H510.642C515.131 416.354 518.77 412.727 518.77 408.254V247.869C518.77 243.395 515.131 239.769 510.642 239.769Z" fill="#0D58FF"/>
<path d="M510.642 417.566H235.02C229.865 417.566 225.676 413.391 225.676 408.254V247.869C225.676 242.732 229.865 238.557 235.02 238.557H510.642C515.797 238.557 519.986 242.732 519.986 247.869V408.254C519.986 413.391 515.797 417.566 510.642 417.566ZM235.02 240.981C231.207 240.981 228.108 244.069 228.108 247.869V408.254C228.108 412.053 231.207 415.141 235.02 415.141H510.642C514.455 415.141 517.554 412.053 517.554 408.254V247.869C517.554 244.069 514.455 240.981 510.642 240.981H235.02Z" fill="white"/>
<path d="M507.862 246.859H237.8C235.764 246.859 234.113 248.504 234.113 250.534V405.589C234.113 407.618 235.764 409.264 237.8 409.264H507.862C509.898 409.264 511.549 407.618 511.549 405.589V250.534C511.549 248.504 509.898 246.859 507.862 246.859Z" fill="white"/>
<path d="M507.862 410.476H237.8C235.097 410.476 232.896 408.282 232.896 405.589V250.534C232.896 247.84 235.097 245.647 237.8 245.647H507.862C510.565 245.647 512.766 247.84 512.766 250.534V405.589C512.766 408.282 510.565 410.476 507.862 410.476ZM237.8 248.071C236.439 248.071 235.329 249.177 235.329 250.534V405.589C235.329 406.945 236.439 408.052 237.8 408.052H507.862C509.223 408.052 510.333 406.945 510.333 405.589V250.534C510.333 249.177 509.223 248.071 507.862 248.071H237.8Z" fill="white"/>
<path d="M507.862 246.859H237.8C235.764 246.859 234.113 248.504 234.113 250.534V405.589C234.113 407.618 235.764 409.264 237.8 409.264H507.862C509.898 409.264 511.549 407.618 511.549 405.589V250.534C511.549 248.504 509.898 246.859 507.862 246.859Z" fill="white"/>
<path d="M507.862 410.476H237.8C235.097 410.476 232.896 408.282 232.896 405.589V250.534C232.896 247.84 235.097 245.647 237.8 245.647H507.862C510.565 245.647 512.766 247.84 512.766 250.534V405.589C512.766 408.282 510.565 410.476 507.862 410.476ZM237.8 248.071C236.439 248.071 235.329 249.177 235.329 250.534V405.589C235.329 406.945 236.439 408.052 237.8 408.052H507.862C509.223 408.052 510.333 406.945 510.333 405.589V250.534C510.333 249.177 509.223 248.071 507.862 248.071H237.8Z" fill="white"/>
<path d="M541.108 448.706H204.554L229.817 416.354H512.785L541.108 448.706Z" fill="#0D58FF"/>
<path d="M541.108 449.918H204.554C204.081 449.918 203.656 449.658 203.444 449.235C203.241 448.821 203.29 448.321 203.57 447.955L228.832 415.603C229.064 415.305 229.421 415.132 229.807 415.132H512.775C513.133 415.132 513.47 415.286 513.712 415.555L542.035 447.907C542.353 448.263 542.421 448.773 542.218 449.206C542.015 449.639 541.581 449.918 541.098 449.918H541.108ZM207.054 447.494H538.415L512.216 417.566H230.425L207.054 447.494Z" fill="white"/>
<path d="M535.721 459.759H209.941C206.919 459.759 204.467 457.344 204.467 454.362V448.696H541.176V454.362C541.176 457.344 538.724 459.759 535.702 459.759H535.721Z" fill="#0D58FF"/>
<path d="M535.721 460.981H209.941C206.243 460.981 203.241 458.018 203.241 454.372V448.706C203.241 448.032 203.792 447.494 204.477 447.494H541.185C541.861 447.494 542.421 448.042 542.421 448.706V454.372C542.421 458.018 539.419 460.981 535.721 460.981ZM205.703 449.918V454.362C205.703 456.671 207.605 458.537 209.941 458.537H535.712C538.048 458.537 539.95 456.661 539.95 454.362V449.918H205.703Z" fill="white"/>
<path d="M277.157 424.858H240.58C239.905 424.858 239.364 424.309 239.364 423.646C239.364 422.982 239.914 422.433 240.58 422.433H277.157C277.833 422.433 278.373 422.982 278.373 423.646C278.373 424.309 277.823 424.858 277.157 424.858Z" fill="white"/>
<path d="M371.634 432.034C355.581 431.89 339.295 431.813 323.242 431.794C322.566 431.794 322.026 431.245 322.026 430.582C322.026 429.908 322.576 429.37 323.242 429.37C339.305 429.389 355.59 429.466 371.653 429.61C372.329 429.61 372.87 430.168 372.86 430.832C372.86 431.496 372.31 432.034 371.644 432.034H371.634Z" fill="white"/>
<path d="M286.221 431.871C285.555 431.871 285.005 431.332 285.005 430.659C285.005 429.985 285.546 429.437 286.221 429.437C296.579 429.379 307.121 429.36 317.546 429.36C318.222 429.36 318.763 429.908 318.763 430.572C318.763 431.236 318.212 431.784 317.546 431.784C307.13 431.784 296.589 431.813 286.231 431.861L286.221 431.871Z" fill="white"/>
<path d="M263.256 432.034C262.59 432.034 262.04 431.496 262.04 430.832C262.04 430.158 262.571 429.61 263.246 429.61C268.807 429.562 274.367 429.514 279.937 429.485C280.613 429.485 281.153 430.024 281.163 430.687C281.163 431.361 280.622 431.909 279.956 431.909C274.396 431.948 268.836 431.986 263.275 432.034H263.266H263.256Z" fill="white"/>
<path d="M257.396 432.034H235.657C234.981 432.034 234.441 431.486 234.441 430.822C234.441 430.158 234.991 429.61 235.657 429.61H257.396C258.072 429.61 258.613 430.158 258.613 430.822C258.613 431.486 258.063 432.034 257.396 432.034Z" fill="white"/>
<path d="M356.025 438.768C355.359 438.768 354.808 438.23 354.808 437.566C354.808 436.892 355.349 436.344 356.015 436.344C361.218 436.306 366.421 436.267 371.624 436.209H371.634C372.3 436.209 372.85 436.748 372.85 437.412C372.85 438.085 372.319 438.634 371.644 438.643C366.441 438.691 361.237 438.739 356.034 438.778L356.025 438.768Z" fill="white"/>
<path d="M326.939 438.884C326.263 438.884 325.723 438.345 325.723 437.672C325.723 436.998 326.263 436.459 326.939 436.459C334.739 436.459 342.549 436.431 350.348 436.382C351.014 436.382 351.565 436.921 351.565 437.595C351.565 438.268 351.024 438.816 350.348 438.816C342.539 438.864 334.739 438.884 326.929 438.893L326.939 438.884Z" fill="white"/>
<path d="M320.703 438.874C306.522 438.864 291.994 438.778 277.504 438.634C276.829 438.634 276.288 438.076 276.298 437.402C276.298 436.729 276.848 436.152 277.533 436.2C292.013 436.344 306.532 436.431 320.703 436.44C321.379 436.44 321.919 436.989 321.919 437.652C321.919 438.326 321.369 438.864 320.703 438.864V438.874Z" fill="white"/>
<path d="M250.099 438.874C241.623 438.874 233.196 438.797 228.784 438.634C228.108 438.605 227.587 438.047 227.606 437.373C227.626 436.7 228.205 436.171 228.871 436.2C237.655 436.517 262.426 436.517 271.626 436.2C272.33 436.18 272.861 436.7 272.89 437.373C272.909 438.047 272.388 438.605 271.712 438.634C267.088 438.797 258.565 438.874 250.089 438.874H250.099Z" fill="white"/>
<path d="M324.719 424.858H293.017C292.342 424.858 291.801 424.309 291.801 423.646C291.801 422.982 292.351 422.433 293.017 422.433H324.719C325.395 422.433 325.935 422.982 325.935 423.646C325.935 424.309 325.385 424.858 324.719 424.858Z" fill="white"/>
<path d="M371.267 424.858H339.566C338.89 424.858 338.349 424.309 338.349 423.646C338.349 422.982 338.9 422.433 339.566 422.433H371.267C371.943 422.433 372.484 422.982 372.484 423.646C372.484 424.309 371.933 424.858 371.267 424.858Z" fill="white"/>
<path d="M410.257 424.858H378.555C377.88 424.858 377.339 424.309 377.339 423.646C377.339 422.982 377.889 422.433 378.555 422.433H410.257C410.933 422.433 411.473 422.982 411.473 423.646C411.473 424.309 410.923 424.858 410.257 424.858Z" fill="white"/>
<path d="M510.584 432.034H510.574C493.227 431.88 470.503 431.813 456.332 431.794C455.657 431.794 455.116 431.245 455.116 430.582C455.116 429.908 455.666 429.37 456.332 429.37C470.513 429.379 493.237 429.456 510.594 429.61C511.269 429.61 511.81 430.168 511.8 430.832C511.8 431.496 511.25 432.034 510.584 432.034Z" fill="white"/>
<path d="M419.312 431.871C418.646 431.871 418.096 431.332 418.096 430.659C418.096 429.985 418.636 429.437 419.312 429.437C429.67 429.379 440.211 429.36 450.637 429.36C451.313 429.36 451.853 429.908 451.853 430.572C451.853 431.236 451.303 431.784 450.637 431.784C440.221 431.784 429.68 431.813 419.321 431.861L419.312 431.871Z" fill="white"/>
<path d="M396.347 432.034C395.68 432.034 395.13 431.496 395.13 430.832C395.13 430.158 395.661 429.61 396.337 429.61C401.897 429.562 407.458 429.514 413.028 429.485C413.703 429.485 414.244 430.024 414.253 430.687C414.253 431.361 413.713 431.909 413.047 431.909C407.487 431.948 401.926 431.986 396.366 432.034H396.356H396.347Z" fill="white"/>
<path d="M390.487 432.034H377.532C376.856 432.034 376.316 431.486 376.316 430.822C376.316 430.158 376.866 429.61 377.532 429.61H390.487C391.163 429.61 391.703 430.158 391.703 430.822C391.703 431.486 391.153 432.034 390.487 432.034Z" fill="white"/>
<path d="M489.125 438.768C488.459 438.768 487.908 438.23 487.908 437.566C487.908 436.892 488.449 436.344 489.115 436.344C491.239 436.325 495.332 436.315 499.772 436.296C506.192 436.267 513.355 436.238 516.424 436.209C517.1 436.209 517.641 436.748 517.65 437.412C517.65 438.085 517.119 438.634 516.444 438.643C513.364 438.672 506.192 438.701 499.772 438.73C495.332 438.749 491.248 438.759 489.125 438.778V438.768Z" fill="white"/>
<path d="M460.03 438.884C459.354 438.884 458.813 438.345 458.813 437.672C458.813 436.998 459.354 436.459 460.03 436.459C467.829 436.459 475.639 436.431 483.439 436.382C484.105 436.382 484.655 436.921 484.655 437.595C484.655 438.268 484.115 438.816 483.439 438.816C475.629 438.864 467.83 438.884 460.02 438.893L460.03 438.884Z" fill="white"/>
<path d="M453.803 438.874C439.622 438.864 425.094 438.778 410.605 438.634C409.929 438.634 409.388 438.076 409.398 437.402C409.398 436.729 409.948 436.152 410.634 436.2C425.114 436.344 439.632 436.431 453.803 436.44C454.479 436.44 455.02 436.989 455.02 437.652C455.02 438.326 454.469 438.864 453.803 438.864V438.874Z" fill="white"/>
<path d="M390.989 438.884C386.423 438.884 381.915 438.807 377.484 438.643C376.808 438.614 376.287 438.056 376.306 437.383C376.326 436.71 376.895 436.181 377.571 436.209C386.365 436.527 395.497 436.527 404.716 436.209C405.43 436.19 405.952 436.71 405.981 437.383C406 438.056 405.479 438.614 404.803 438.643C400.16 438.807 395.545 438.884 390.979 438.884H390.989Z" fill="white"/>
<path d="M457.809 424.858H426.108C425.432 424.858 424.891 424.309 424.891 423.646C424.891 422.982 425.442 422.433 426.108 422.433H457.809C458.485 422.433 459.026 422.982 459.026 423.646C459.026 424.309 458.475 424.858 457.809 424.858Z" fill="white"/>
<path d="M504.358 424.858H472.656C471.98 424.858 471.44 424.309 471.44 423.646C471.44 422.982 471.99 422.433 472.656 422.433H504.358C505.033 422.433 505.574 422.982 505.574 423.646C505.574 424.309 505.024 424.858 504.358 424.858Z" fill="white"/>
<path d="M462.047 264.107H324.922C320.635 264.107 317.16 267.57 317.16 271.842V350.495C317.16 354.767 320.635 358.23 324.922 358.23H462.047C466.334 358.23 469.808 354.767 469.808 350.495V271.842C469.808 267.57 466.334 264.107 462.047 264.107Z" fill="#0D58FF"/>
<path d="M462.057 264.107H324.922C321.35 264.107 318.348 266.522 317.45 269.803C318.164 269.581 318.927 269.466 319.718 269.466H456.854C461.14 269.466 464.615 272.929 464.615 277.2V355.863C464.615 356.565 464.509 357.248 464.335 357.902C467.511 356.94 469.828 353.997 469.828 350.505V271.842C469.828 267.571 466.353 264.107 462.066 264.107H462.057Z" fill="white"/>
<path d="M462.047 264.107H324.922C320.635 264.107 317.16 267.57 317.16 271.842V350.495C317.16 354.767 320.635 358.23 324.922 358.23H462.047C466.334 358.23 469.808 354.767 469.808 350.495V271.842C469.808 267.57 466.334 264.107 462.047 264.107Z" stroke="black" stroke-linecap="round" stroke-linejoin="round"/>
<path d="M454.884 294.603L395.989 316.527L332.094 294.603V197.46C332.094 193.352 335.434 190.024 339.556 190.024H447.422C451.544 190.024 454.884 193.352 454.884 197.46V294.603Z" fill="white" stroke="black" stroke-linecap="round" stroke-linejoin="round"/>
<path d="M405.479 255.19C405.43 255.459 405.411 255.815 405.411 256.258C405.411 257.325 405.662 258.124 406.183 258.653C406.695 259.182 407.351 259.451 408.153 259.451C409.89 259.451 411.493 258.595 412.96 256.892C414.427 255.19 415.605 252.968 416.503 250.245C417.391 247.523 417.835 244.733 417.835 241.895C417.835 238.788 417.101 236.056 415.634 233.679C414.167 231.303 412.072 229.466 409.359 228.158C406.647 226.849 403.48 226.195 399.88 226.195C394.184 226.195 389.02 227.321 384.396 229.591C379.762 231.852 376.123 235.122 373.449 239.403C370.775 243.684 369.443 248.725 369.443 254.536C369.443 257.903 370.128 261.058 371.509 263.982C372.889 266.907 375.042 269.283 377.986 271.101C380.921 272.919 384.618 273.824 389.068 273.824C392.447 273.824 395.207 273.506 397.341 272.862C399.474 272.217 401.723 271.236 404.079 269.899C404.571 269.629 404.986 269.504 405.343 269.504C406.232 269.504 406.898 270.062 407.342 271.169C407.477 271.438 407.544 271.698 407.544 271.967C407.544 272.939 406.695 273.872 405.006 274.757C402.293 276.132 399.773 277.181 397.466 277.912C395.15 278.643 392.35 279.009 389.058 279.009C383.363 279.009 378.642 277.854 374.907 275.546C371.171 273.237 368.429 270.235 366.701 266.532C364.973 262.828 364.095 258.826 364.095 254.526C364.095 247.782 365.668 241.876 368.835 236.796C371.991 231.717 376.287 227.821 381.712 225.089C387.137 222.357 393.19 221 399.87 221C404.764 221 408.973 221.933 412.487 223.79C416.001 225.656 418.665 228.158 420.461 231.303C422.266 234.449 423.164 237.98 423.164 241.876C423.164 245.772 422.43 249.206 420.963 252.689C419.495 256.171 417.4 259.018 414.688 261.231C411.975 263.453 408.838 264.56 405.276 264.56C403.451 264.56 401.82 264.05 400.372 263.03C398.924 262.01 398.026 260.702 397.669 259.105C395.574 262.741 392.283 264.56 387.794 264.56C386.104 264.56 384.492 264.117 382.957 263.232C381.423 262.347 380.187 261.058 379.251 259.374C378.314 257.691 377.851 255.757 377.851 253.583C377.851 250.793 378.575 247.888 380.023 244.867C381.471 241.856 383.43 239.336 385.892 237.316C388.363 235.296 390.999 234.285 393.798 234.285C395.314 234.285 396.675 234.699 397.901 235.517C399.127 236.335 400.044 237.479 400.671 238.942L400.942 237.143C401.077 236.431 401.444 235.815 402.042 235.276C402.641 234.747 403.5 234.478 404.61 234.478C407.014 234.478 408.211 235.43 408.211 237.335C408.211 237.778 408.191 238.133 408.143 238.403L405.469 255.161L405.479 255.19ZM399.407 245.416C399.407 243.598 398.914 242.289 397.939 241.491C396.955 240.692 395.69 240.288 394.136 240.288C392.447 240.288 390.921 240.981 389.56 242.347C388.199 243.723 387.157 245.435 386.423 247.503C385.689 249.562 385.322 251.553 385.322 253.458C385.322 255.142 385.718 256.421 386.519 257.287C387.321 258.153 388.431 258.586 389.86 258.586C391.288 258.586 392.582 258.153 393.769 257.287C394.947 256.421 395.931 255.382 396.704 254.16C397.486 252.939 398.026 251.804 398.335 250.736C399.05 248.61 399.407 246.83 399.407 245.416Z" fill="#0D58FF"/>
<path d="M317.16 287.667C332.094 296.806 395.989 316.527 395.989 316.527L469.808 289.235" stroke="black" stroke-linecap="round" stroke-linejoin="round"/>
<path d="M666.456 33.064H616.887C614.145 33.064 611.925 35.2766 611.925 38.0086V69.1005C611.925 71.8326 614.145 74.0452 616.887 74.0452H632.824L631.193 85.4545C631.048 86.5031 632.197 87.2342 633.085 86.657L652.363 74.0452H666.456C669.198 74.0452 671.418 71.8326 671.418 69.1005V38.0086C671.418 35.2766 669.198 33.064 666.456 33.064Z" fill="white" stroke="black" stroke-linecap="round" stroke-linejoin="round"/>
<path d="M659.448 41.1159H621.781C620.395 41.1159 619.271 42.2357 619.271 43.6171V65.4545C619.271 66.8359 620.395 67.9557 621.781 67.9557H659.448C660.834 67.9557 661.958 66.8359 661.958 65.4545V43.6171C661.958 42.2357 660.834 41.1159 659.448 41.1159Z" fill="white"/>
<path d="M659.448 41.1159H621.781C620.391 41.1159 619.271 42.2318 619.271 43.6171V44.7619H655.249C656.639 44.7619 657.759 45.8778 657.759 47.2631V67.9557H659.448C660.838 67.9557 661.958 66.8398 661.958 65.4545V43.6171C661.958 42.2318 660.838 41.1159 659.448 41.1159Z" fill="white"/>
<path d="M659.448 41.1159H621.781C620.395 41.1159 619.271 42.2357 619.271 43.6171V65.4545C619.271 66.8359 620.395 67.9557 621.781 67.9557H659.448C660.834 67.9557 661.958 66.8359 661.958 65.4545V43.6171C661.958 42.2357 660.834 41.1159 659.448 41.1159Z" stroke="black" stroke-linecap="round" stroke-linejoin="round"/>
<path d="M620.149 41.722L636.251 52.7753C638.858 54.5647 642.323 54.5069 644.872 52.631L660.52 41.1159" stroke="black" stroke-linecap="round" stroke-linejoin="round"/>
<path d="M661.263 49.2352C664.334 49.2352 666.823 46.7543 666.823 43.6941C666.823 40.6338 664.334 38.153 661.263 38.153C658.192 38.153 655.703 40.6338 655.703 43.6941C655.703 46.7543 658.192 49.2352 661.263 49.2352Z" fill="#0D58FF" stroke="black" stroke-linecap="round" stroke-linejoin="round"/>
<path d="M662.112 40.4617C662.219 40.5772 662.277 40.7119 662.277 40.8754V46.4358C662.277 46.5993 662.219 46.7436 662.093 46.8494C661.968 46.9649 661.823 47.013 661.639 47.013C661.456 47.013 661.311 46.9552 661.195 46.8494C661.08 46.734 661.022 46.5993 661.022 46.4358V41.8759L660.423 42.2414C660.327 42.2992 660.22 42.328 660.114 42.328C659.95 42.328 659.815 42.2703 659.699 42.1452C659.583 42.0202 659.525 41.8855 659.525 41.7412C659.525 41.6354 659.554 41.5392 659.603 41.4526C659.66 41.366 659.728 41.2891 659.815 41.241L661.273 40.3752C661.379 40.3174 661.524 40.2886 661.688 40.2886C661.852 40.2886 661.987 40.3463 662.093 40.4521L662.112 40.4617Z" fill="white"/>
<path d="M49.7436 39.3651H117.809C121.574 39.3651 124.625 42.405 124.625 46.1568V88.8407C124.625 92.5925 121.574 95.6324 117.809 95.6324H95.9348L98.1744 111.303C98.3771 112.737 96.794 113.747 95.5777 112.948L69.1082 95.6324H49.7533C45.9885 95.6324 42.938 92.5925 42.938 88.8407V46.1568C42.938 42.405 45.9885 39.3651 49.7533 39.3651H49.7436Z" fill="white" stroke="black" stroke-linecap="round" stroke-linejoin="round"/>
<path d="M74.4562 84.1173C73.9349 83.5978 73.6742 82.8474 73.6742 81.8854V81.0292C73.6742 80.0576 73.9349 79.3169 74.4562 78.7974C74.9774 78.2779 75.7207 78.0182 76.6957 78.0182H77.3425C78.3175 78.0182 79.0608 78.2779 79.5821 78.7974C80.1034 79.3169 80.364 80.0576 80.364 81.0292V81.8854C80.364 82.857 80.1034 83.5978 79.5821 84.1173C79.0608 84.6367 78.3175 84.8965 77.3425 84.8965H76.6957C75.7207 84.8965 74.9774 84.6367 74.4562 84.1173ZM75.1802 71.9095L73.7225 53.4487C73.6549 52.4194 73.9349 51.5439 74.5527 50.8417C75.1705 50.1394 75.991 49.7931 76.995 49.7931C77.9989 49.7931 78.8291 50.1394 79.4566 50.8417C80.0937 51.5439 80.364 52.4194 80.2675 53.4487L78.8581 71.9095C78.7519 73.1793 78.1534 73.8142 77.0433 73.8142C75.9331 73.8142 75.2863 73.1793 75.1802 71.9095Z" fill="#0D58FF"/>
<path d="M87.5171 84.1173C86.9958 83.5978 86.7352 82.8474 86.7352 81.8854V81.0292C86.7352 80.0576 86.9958 79.3169 87.5171 78.7974C88.0384 78.2779 88.7817 78.0182 89.7567 78.0182H90.4035C91.3785 78.0182 92.1218 78.2779 92.643 78.7974C93.1643 79.3169 93.425 80.0576 93.425 81.0292V81.8854C93.425 82.857 93.1643 83.5978 92.643 84.1173C92.1218 84.6367 91.3785 84.8965 90.4035 84.8965H89.7567C88.7817 84.8965 88.0384 84.6367 87.5171 84.1173ZM88.2508 71.9095L86.7931 53.4487C86.7256 52.4194 87.0055 51.5439 87.6233 50.8417C88.2411 50.1394 89.0617 49.7931 90.0656 49.7931C91.0696 49.7931 91.8997 50.1394 92.5272 50.8417C93.1643 51.5439 93.4346 52.4194 93.3381 53.4487L91.9287 71.9095C91.8225 73.1793 91.224 73.8142 90.1139 73.8142C89.0037 73.8142 88.357 73.1793 88.2508 71.9095Z" fill="#0D58FF"/>
</svg>
