<svg width="22" height="23" viewBox="0 0 22 23" fill="none" xmlns="http://www.w3.org/2000/svg">
<path d="M9.53864 0.794982C4.27876 0.794982 0 4.93927 0 10.0338C0 15.1284 4.27876 19.2727 9.53864 19.2727C11.1466 19.2727 12.7273 18.9031 14.0627 18.1904C14.1697 18.3151 14.2883 18.43 14.417 18.5336L17.1423 21.1733C17.394 21.4475 17.7008 21.6691 18.0441 21.8243C18.3873 21.9796 18.7597 22.0652 19.1384 22.076C19.517 22.0868 19.894 22.0225 20.2461 21.8871C20.5981 21.7517 20.9179 21.548 21.1858 21.2886C21.4537 21.0291 21.664 20.7194 21.8038 20.3783C21.9436 20.0373 22.0099 19.6722 21.9988 19.3055C21.9876 18.9387 21.8992 18.578 21.7389 18.2456C21.5787 17.9131 21.3499 17.6159 21.0668 17.3721L18.3414 14.7325C18.2087 14.6038 18.0626 14.4888 17.9054 14.3893C18.6412 13.0959 19.1045 11.5912 19.1045 10.0074C19.1045 4.91287 14.8258 0.768585 9.5659 0.768585L9.53864 0.794982ZM9.53864 3.43466C13.3268 3.43466 16.352 6.36469 16.352 10.0338C16.352 11.776 15.6979 13.3862 14.5532 14.5741C14.526 14.6005 14.4987 14.6269 14.4715 14.6533C14.3428 14.7569 14.2242 14.8717 14.1172 14.9964C12.918 16.0523 11.2829 16.6594 9.51139 16.6594C5.72319 16.6594 2.69807 13.7294 2.69807 10.0602C2.69807 6.39109 5.72319 3.46105 9.51139 3.46105L9.53864 3.43466Z" fill="black"/>
</svg>
