<?xml version="1.0" encoding="UTF-8"?>
<svg xmlns="http://www.w3.org/2000/svg" viewBox="0 0 72 59.06">
  <defs>
    <style>
      .cls-1 {
        isolation: isolate;
      }

      .cls-2 {
        mix-blend-mode: multiply;
      }
    </style>
  </defs>
  <g class="cls-1">
    <g id="Layer_2" data-name="Layer 2">
      <g id="Layer_1-2" data-name="Layer 1">
        <g class="cls-2">
          <g>
            <polygon points="3.14 .08 37.16 58.61 0 58.61 0 .08 3.14 .08"/>
            <path d="M47.48,31.66L29.54,0h35.43c-5.83,10.55-11.66,21.1-17.48,31.66Z"/>
            <path d="M72,.53v58.52h-34.84c-.06-.14.61-1.1.68-1.23.81-1.45,1.61-2.9,2.41-4.35,1.23-2.22,2.47-4.44,3.7-6.67,1.51-2.72,3.01-5.43,4.51-8.14.12-.22,4.84-8.73,4.85-8.76,2.34-4.22,6.85-12.33,16.37-29.38h2.32Z"/>
          </g>
        </g>
      </g>
    </g>
  </g>
</svg>