<svg width="19" height="16" viewBox="0 0 19 16" fill="none" xmlns="http://www.w3.org/2000/svg">
<g clip-path="url(#clip0_58_68)">
<g style="mix-blend-mode:multiply">
<path d="M0.828611 0.0217285L9.80611 15.8781H0V0.0217285H0.828611Z" fill="#F44515"/>
<path d="M12.5293 8.57704L7.79517 0H17.1447C15.6063 2.85811 14.0678 5.71622 12.532 8.57704H12.5293Z" fill="#F44515"/>
<path d="M19.0001 0.143578V15.9973H9.80618C9.79034 15.9594 9.96715 15.6993 9.98562 15.6641C10.1994 15.2712 10.4105 14.8784 10.6216 14.4856C10.9462 13.8842 11.2734 13.2828 11.598 12.6786C11.9965 11.9417 12.3923 11.2076 12.7881 10.4734C12.8198 10.4138 14.0653 8.10836 14.068 8.10023C14.6855 6.95699 15.8756 4.7599 18.3878 0.140869H19.0001V0.143578Z" fill="#F44515"/>
</g>
</g>
<defs>
<clipPath id="clip0_58_68">
<rect width="19" height="16" fill="white"/>
</clipPath>
</defs>
</svg>
